<svg width="152" height="24" viewBox="0 0 152 24" fill="none" xmlns="http://www.w3.org/2000/svg">
<path d="M13.823 13.2559L11.0626 8.38344H9.87959V13.2559H7.37012V0.75236H12.0664C13.0344 0.75236 13.8589 0.925522 14.54 1.27185C15.2212 1.60623 15.7291 2.066 16.0636 2.65117C16.4102 3.2244 16.5835 3.86928 16.5835 4.58581C16.5835 5.40983 16.3445 6.15621 15.8665 6.82498C15.3885 7.4818 14.6775 7.93561 13.7334 8.18639L16.7269 13.2559H13.823ZM9.87959 6.50254H11.9768C12.6579 6.50254 13.1658 6.34132 13.5004 6.01888C13.835 5.6845 14.0023 5.22472 14.0023 4.63955C14.0023 4.06633 13.835 3.62446 13.5004 3.31397C13.1658 2.99153 12.6579 2.83031 11.9768 2.83031H9.87959V6.50254Z" fill="black"/>
<path d="M28.0845 8.07891C28.0845 8.43718 28.0606 8.75962 28.0128 9.04623H20.7532C20.813 9.76277 21.0639 10.324 21.5061 10.7301C21.9482 11.1361 22.4919 11.3391 23.1372 11.3391C24.0693 11.3391 24.7325 10.9391 25.1269 10.1389H27.8335C27.5467 11.0943 26.997 11.8825 26.1844 12.5035C25.3719 13.1126 24.374 13.4171 23.191 13.4171C22.235 13.4171 21.3746 13.2081 20.6098 12.7901C19.857 12.3602 19.2655 11.7571 18.8353 10.9809C18.417 10.2046 18.2079 9.30896 18.2079 8.29387C18.2079 7.26684 18.417 6.3652 18.8353 5.58896C19.2535 4.81271 19.8391 4.2156 20.5919 3.79763C21.3447 3.37965 22.2111 3.17066 23.191 3.17066C24.135 3.17066 24.9775 3.37368 25.7184 3.77971C26.4712 4.18575 27.0508 4.76495 27.4571 5.51731C27.8753 6.25772 28.0845 7.11159 28.0845 8.07891ZM25.4854 7.36238C25.4734 6.7175 25.2404 6.20398 24.7863 5.82183C24.3322 5.42774 23.7765 5.23069 23.1193 5.23069C22.4979 5.23069 21.9721 5.42177 21.5419 5.80392C21.1237 6.17413 20.8668 6.69362 20.7712 7.36238H25.4854Z" fill="black"/>
<path d="M29.2709 8.25805C29.2709 7.2549 29.468 6.3652 29.8624 5.58896C30.2687 4.81271 30.8124 4.2156 31.4935 3.79763C32.1866 3.37965 32.9574 3.17066 33.8059 3.17066C34.5467 3.17066 35.192 3.31994 35.7417 3.61849C36.3034 3.91705 36.7515 4.29323 37.0861 4.74703V3.33188H39.6135V13.2559H37.0861V11.8049C36.7634 12.2706 36.3153 12.6588 35.7417 12.9693C35.1801 13.2678 34.5288 13.4171 33.7879 13.4171C32.9514 13.4171 32.1866 13.2021 31.4935 12.7722C30.8124 12.3423 30.2687 11.7392 29.8624 10.963C29.468 10.1748 29.2709 9.27313 29.2709 8.25805ZM37.0861 8.29387C37.0861 7.68482 36.9666 7.16533 36.7276 6.73541C36.4886 6.29355 36.1659 5.95917 35.7597 5.73227C35.3534 5.49342 34.9172 5.374 34.4511 5.374C33.9851 5.374 33.5549 5.48745 33.1606 5.71435C32.7662 5.94126 32.4436 6.27564 32.1926 6.7175C31.9536 7.14742 31.8341 7.66093 31.8341 8.25805C31.8341 8.85516 31.9536 9.38062 32.1926 9.83442C32.4436 10.2763 32.7662 10.6166 33.1606 10.8555C33.5669 11.0943 33.997 11.2137 34.4511 11.2137C34.9172 11.2137 35.3534 11.1003 35.7597 10.8734C36.1659 10.6345 36.4886 10.3002 36.7276 9.87025C36.9666 9.42838 37.0861 8.90293 37.0861 8.29387Z" fill="black"/>
<path d="M41.4191 8.25805C41.4191 7.2549 41.6163 6.3652 42.0107 5.58896C42.4169 4.81271 42.9666 4.2156 43.6597 3.79763C44.3528 3.37965 45.1236 3.17066 45.972 3.17066C46.6173 3.17066 47.2327 3.31397 47.8183 3.60058C48.4038 3.87525 48.8699 4.24546 49.2164 4.71121V0H51.7617V13.2559H49.2164V11.787C48.9057 12.2766 48.4696 12.6707 47.9079 12.9693C47.3463 13.2678 46.695 13.4171 45.9541 13.4171C45.1176 13.4171 44.3528 13.2021 43.6597 12.7722C42.9666 12.3423 42.4169 11.7392 42.0107 10.963C41.6163 10.1748 41.4191 9.27313 41.4191 8.25805ZM49.2343 8.29387C49.2343 7.68482 49.1148 7.16533 48.8759 6.73541C48.6369 6.29355 48.3142 5.95917 47.9079 5.73227C47.5016 5.49342 47.0654 5.374 46.5994 5.374C46.1334 5.374 45.7032 5.48745 45.3088 5.71435C44.9145 5.94126 44.5918 6.27564 44.3409 6.7175C44.1019 7.14742 43.9824 7.66093 43.9824 8.25805C43.9824 8.85516 44.1019 9.38062 44.3409 9.83442C44.5918 10.2763 44.9145 10.6166 45.3088 10.8555C45.7151 11.0943 46.1453 11.2137 46.5994 11.2137C47.0654 11.2137 47.5016 11.1003 47.9079 10.8734C48.3142 10.6345 48.6369 10.3002 48.8759 9.87025C49.1148 9.42838 49.2343 8.90293 49.2343 8.29387Z" fill="black"/>
<path d="M63.7128 3.33188L57.5646 17.9492H54.8938L57.0448 13.0051L53.0655 3.33188H55.8797L58.4429 10.2643L61.042 3.33188H63.7128Z" fill="black"/>
<path d="M73.6566 13.3813C72.7843 13.3813 71.9956 13.232 71.2905 12.9334C70.5975 12.6349 70.0478 12.2049 69.6415 11.6437C69.2352 11.0824 69.026 10.4196 69.0141 9.65529H71.7028C71.7387 10.1688 71.9179 10.5748 72.2406 10.8734C72.5752 11.1719 73.0293 11.3212 73.6028 11.3212C74.1884 11.3212 74.6485 11.1839 74.9831 10.9092C75.3176 10.6226 75.485 10.2524 75.485 9.79859C75.485 9.42838 75.3714 9.12386 75.1444 8.88501C74.9173 8.64617 74.6305 8.46106 74.284 8.3297C73.9494 8.18639 73.4834 8.03114 72.8859 7.86395C72.0733 7.62511 71.41 7.39223 70.8962 7.16533C70.3943 6.92649 69.9581 6.57419 69.5877 6.10845C69.2292 5.63076 69.0499 4.99782 69.0499 4.20963C69.0499 3.46922 69.2352 2.82433 69.6056 2.27499C69.9761 1.72565 70.4959 1.30767 71.1651 1.02106C71.8343 0.722504 72.5991 0.573227 73.4594 0.573227C74.75 0.573227 75.7956 0.889695 76.5963 1.52263C77.4089 2.14363 77.857 3.01541 77.9406 4.13798H75.1802C75.1563 3.70806 74.9711 3.35576 74.6246 3.08109C74.29 2.79448 73.8418 2.65117 73.2802 2.65117C72.7903 2.65117 72.3959 2.77657 72.0972 3.02735C71.8104 3.27814 71.667 3.64238 71.667 4.12007C71.667 4.45445 71.7745 4.73509 71.9896 4.96199C72.2167 5.17695 72.4915 5.35609 72.8142 5.49939C73.1488 5.63076 73.6148 5.78601 74.2123 5.96514C75.0249 6.20398 75.6881 6.44283 76.2019 6.68167C76.7158 6.92052 77.1579 7.27878 77.5284 7.75647C77.8988 8.23416 78.0841 8.86113 78.0841 9.63737C78.0841 10.3061 77.9108 10.9271 77.5642 11.5004C77.2177 12.0736 76.7098 12.5334 76.0406 12.8797C75.3714 13.2141 74.5768 13.3813 73.6566 13.3813Z" fill="black"/>
<path d="M89.491 8.07891C89.491 8.43718 89.467 8.75962 89.4192 9.04623H82.1597C82.2195 9.76277 82.4704 10.324 82.9125 10.7301C83.3547 11.1361 83.8984 11.3391 84.5437 11.3391C85.4758 11.3391 86.139 10.9391 86.5334 10.1389H89.24C88.9532 11.0943 88.4035 11.8825 87.5909 12.5035C86.7783 13.1126 85.7805 13.4171 84.5975 13.4171C83.6415 13.4171 82.7811 13.2081 82.0163 12.7901C81.2635 12.3602 80.6719 11.7571 80.2417 10.9809C79.8235 10.2046 79.6144 9.30896 79.6144 8.29387C79.6144 7.26684 79.8235 6.3652 80.2417 5.58896C80.66 4.81271 81.2455 4.2156 81.9984 3.79763C82.7512 3.37965 83.6176 3.17066 84.5975 3.17066C85.5415 3.17066 86.384 3.37368 87.1249 3.77971C87.8777 4.18575 88.4573 4.76495 88.8636 5.51731C89.2818 6.25772 89.491 7.11159 89.491 8.07891ZM86.8918 7.36238C86.8799 6.7175 86.6469 6.20398 86.1928 5.82183C85.7387 5.42774 85.183 5.23069 84.5258 5.23069C83.9044 5.23069 83.3786 5.42177 82.9484 5.80392C82.5301 6.17413 82.2732 6.69362 82.1776 7.36238H86.8918Z" fill="black"/>
<path d="M94.2444 5.39191V10.1927C94.2444 10.5271 94.3221 10.7719 94.4774 10.9271C94.6447 11.0704 94.9196 11.1421 95.3019 11.1421H96.4671V13.2559H94.8897C92.7746 13.2559 91.717 12.2288 91.717 10.1748V5.39191H90.534V3.33188H91.717V0.877753H94.2444V3.33188H96.4671V5.39191H94.2444Z" fill="black"/>
<path d="M111.255 4.51416C110.968 3.9887 110.573 3.58864 110.072 3.31397C109.57 3.0393 108.984 2.90196 108.315 2.90196C107.574 2.90196 106.917 3.06915 106.343 3.40353C105.77 3.73792 105.321 4.2156 104.999 4.8366C104.676 5.45759 104.515 6.17413 104.515 6.9862C104.515 7.82215 104.676 8.55063 104.999 9.17163C105.333 9.79262 105.794 10.2703 106.379 10.6047C106.965 10.9391 107.646 11.1063 108.422 11.1063C109.378 11.1063 110.161 10.8555 110.771 10.3539C111.38 9.84039 111.78 9.12983 111.972 8.22222H107.67V6.30549H114.445V8.49092C114.278 9.3627 113.919 10.1688 113.37 10.9092C112.82 11.6496 112.109 12.2467 111.237 12.7006C110.376 13.1424 109.408 13.3633 108.333 13.3633C107.126 13.3633 106.033 13.0946 105.053 12.5572C104.085 12.0079 103.32 11.2496 102.758 10.2823C102.209 9.31493 101.934 8.21625 101.934 6.9862C101.934 5.75615 102.209 4.65747 102.758 3.69015C103.32 2.71088 104.085 1.95255 105.053 1.41515C106.033 0.865811 107.12 0.59114 108.315 0.59114C109.725 0.59114 110.95 0.937464 111.99 1.63011C113.029 2.31082 113.746 3.27217 114.14 4.51416H111.255Z" fill="black"/>
<path d="M118.811 4.87243C119.134 4.34697 119.552 3.93496 120.066 3.63641C120.592 3.33785 121.189 3.18857 121.859 3.18857V5.82183H121.195C120.407 5.82183 119.809 6.00694 119.403 6.37715C119.008 6.74735 118.811 7.39223 118.811 8.31179V13.2559H116.302V3.33188H118.811V4.87243Z" fill="black"/>
<path d="M127.958 13.4171C127.002 13.4171 126.142 13.2081 125.377 12.7901C124.612 12.3602 124.009 11.7571 123.567 10.9809C123.137 10.2046 122.921 9.30896 122.921 8.29387C122.921 7.27878 123.142 6.38312 123.585 5.60687C124.039 4.83063 124.654 4.23352 125.431 3.81554C126.208 3.38562 127.074 3.17066 128.03 3.17066C128.986 3.17066 129.852 3.38562 130.629 3.81554C131.406 4.23352 132.015 4.83063 132.457 5.60687C132.912 6.38312 133.139 7.27878 133.139 8.29387C133.139 9.30896 132.906 10.2046 132.439 10.9809C131.985 11.7571 131.364 12.3602 130.575 12.7901C129.799 13.2081 128.926 13.4171 127.958 13.4171ZM127.958 11.2317C128.412 11.2317 128.837 11.1242 129.231 10.9092C129.637 10.6823 129.96 10.3479 130.199 9.90607C130.438 9.46421 130.557 8.92681 130.557 8.29387C130.557 7.35044 130.306 6.62793 129.805 6.12636C129.315 5.61284 128.711 5.35609 127.994 5.35609C127.277 5.35609 126.674 5.61284 126.184 6.12636C125.706 6.62793 125.467 7.35044 125.467 8.29387C125.467 9.23731 125.7 9.96578 126.166 10.4793C126.644 10.9809 127.241 11.2317 127.958 11.2317Z" fill="black"/>
<path d="M148.746 3.33188L145.842 13.2559H143.135L141.325 6.32341L139.514 13.2559H136.79L133.868 3.33188H136.413L138.17 10.8913L140.07 3.33188H142.723L144.587 10.8734L146.344 3.33188H148.746Z" fill="black"/>
<path d="M140.457 21.9951C140.177 22.0321 139.922 22.0321 139.642 22.0876L139.642 22.106C139.515 22.0321 139.362 21.9951 139.183 21.9766C138.725 21.9397 138.241 21.9027 137.782 21.8657C137.731 21.8657 137.706 21.8842 137.731 21.9212C137.731 21.9397 137.757 21.9581 137.757 21.9581C138.011 22.0321 138.292 22.106 138.572 22.1615C138.648 22.18 138.725 22.1985 138.801 22.1985C139.285 22.1615 139.769 22.3094 140.254 22.3464C140.356 22.3464 140.457 22.3834 140.559 22.3834C141.094 22.3649 141.604 22.4573 142.139 22.5313C142.292 22.5498 142.419 22.5682 142.572 22.5682C143.031 22.5498 143.464 22.6237 143.897 22.7161C143.897 22.7161 143.923 22.7346 143.923 22.7531C143.642 22.8086 143.362 22.7716 143.082 22.7346C142.521 22.6422 141.961 22.6237 141.375 22.6052C141.222 22.6052 141.094 22.6052 140.942 22.5867C140.483 22.4943 140.024 22.4758 139.54 22.4573C139.489 22.4573 139.464 22.4758 139.464 22.4943C139.464 22.5128 139.489 22.5313 139.489 22.5313C139.795 22.6237 140.101 22.6977 140.432 22.6792C140.61 22.6792 140.789 22.6792 140.993 22.6792C141.196 22.6792 141.4 22.7161 141.528 22.8456C141.655 22.975 141.782 22.975 141.935 22.938C142.139 22.8825 142.343 22.8825 142.521 22.8456C142.674 22.8271 142.853 22.8271 143.005 22.8825C143.158 22.938 143.311 22.938 143.49 22.938C143.566 22.938 143.642 22.9565 143.693 23.0119C143.719 23.0489 143.77 23.0859 143.795 23.1044C144.05 23.1968 144.305 23.2893 144.611 23.2893C144.84 23.2893 145.044 23.3262 145.273 23.3632C145.655 23.4187 146.038 23.4741 146.42 23.4926C146.726 23.5111 147.031 23.5666 147.312 23.6035C147.439 23.622 147.541 23.6405 147.668 23.6405C148.407 23.659 149.121 23.8254 149.834 23.8624C149.86 23.8624 149.885 23.9178 149.885 23.9363C149.885 23.9548 149.834 23.9733 149.809 23.9918C149.783 23.9918 149.732 24.0103 149.681 23.9918C149.452 23.9733 149.223 23.9733 149.019 23.9548C148.535 23.9178 148.051 23.8624 147.566 23.8254C147.108 23.7884 146.624 23.7514 146.165 23.696C145.885 23.6775 145.604 23.659 145.324 23.6405C145.222 23.6405 145.12 23.6405 145.018 23.6035C144.713 23.5296 144.381 23.5296 144.05 23.5296C143.388 23.5296 142.751 23.4741 142.088 23.4372C141.986 23.4372 141.884 23.4187 141.782 23.4187C141.579 23.4187 141.375 23.4002 141.171 23.3632C140.916 23.3077 140.661 23.2893 140.381 23.2708C139.948 23.2523 139.54 23.2338 139.107 23.1968C138.699 23.1598 138.292 23.1044 137.909 23.0674C137.553 23.0304 137.17 23.0119 136.814 22.9935C136.483 22.975 136.177 22.9565 135.846 22.9195C135.54 22.8825 135.234 22.864 134.928 22.8456C133.96 22.7716 132.992 22.7161 131.998 22.6422C131.565 22.6052 131.157 22.5682 130.724 22.5313C130.112 22.4943 129.501 22.4573 128.889 22.4018C128.125 22.3464 127.361 22.2909 126.571 22.2724C126.112 22.2724 125.679 22.217 125.246 22.1615C125.016 22.143 124.813 22.1245 124.583 22.106C124.15 22.0876 123.742 22.0691 123.309 22.0321C123.156 22.0321 123.029 22.0136 122.876 22.0136C122.519 22.0321 122.137 21.9951 121.78 21.9581C121.449 21.9212 121.143 21.9212 120.812 21.9027C120.252 21.8842 119.666 21.8472 119.105 21.8287C118.952 21.8287 118.774 21.8287 118.621 21.8102C118.086 21.7548 117.525 21.7363 116.965 21.7363C116.786 21.7363 116.608 21.7178 116.404 21.7178C115.869 21.6808 115.359 21.6439 114.824 21.6439C114.646 21.6439 114.468 21.6439 114.264 21.6254C113.78 21.5699 113.296 21.5884 112.811 21.5699C112.353 21.5514 111.92 21.5329 111.461 21.5144C111.13 21.496 110.798 21.496 110.493 21.4775C110.034 21.459 109.601 21.4405 109.142 21.422C109.015 21.422 108.887 21.4035 108.785 21.4035C108.148 21.4405 107.511 21.385 106.9 21.385C106.543 21.385 106.161 21.3481 105.804 21.3481C105.142 21.3296 104.454 21.3111 103.791 21.2926C103.333 21.2741 102.9 21.2741 102.441 21.2556C102.186 21.2371 101.906 21.2371 101.651 21.2556C101.524 21.2741 101.396 21.2741 101.294 21.2556C101.04 21.2186 100.759 21.2186 100.504 21.2186C99.9438 21.2002 99.3578 21.1817 98.7972 21.1817C98.6953 21.1817 98.5934 21.1632 98.4915 21.1632C97.9819 21.2002 97.4723 21.1632 96.9627 21.1632C96.3766 21.1632 95.7906 21.1817 95.179 21.1817C94.7968 21.1817 94.4146 21.1632 94.007 21.1632C93.8541 21.1632 93.6757 21.1447 93.5228 21.1632C93.1661 21.2002 92.8349 21.1817 92.4781 21.1632C92.0195 21.1447 91.5863 21.1077 91.1277 21.1632C91.0767 21.1632 91.0003 21.1632 90.9493 21.1632C90.083 21.1077 89.1912 21.1632 88.3249 21.1447C87.5095 21.1262 86.6941 21.1262 85.8788 21.1262C85.3182 21.1262 84.7321 21.1632 84.1716 21.1262C83.1269 21.1632 82.0822 21.1262 81.063 21.1817C80.4005 21.2186 79.7125 21.2002 79.05 21.2002C78.7952 21.2002 78.515 21.2002 78.2602 21.2002C77.5977 21.2002 76.9097 21.2186 76.2472 21.2371C75.7376 21.2371 75.228 21.2371 74.7184 21.2556C73.8011 21.2926 72.8838 21.2926 71.9665 21.2926C71.7117 21.2926 71.4314 21.2926 71.1766 21.3111C70.2848 21.3296 69.393 21.3481 68.4757 21.3296C68.3229 21.3296 68.1445 21.3296 67.9916 21.3481C67.1508 21.4035 66.2844 21.4035 65.4181 21.422C64.7556 21.4405 64.1186 21.4405 63.4561 21.459C63.1758 21.459 62.8956 21.4775 62.6153 21.385C62.5388 21.3665 62.4369 21.3665 62.386 21.385C62.0802 21.496 61.749 21.496 61.4177 21.496C60.6533 21.5144 59.9144 21.5144 59.15 21.5329C58.7678 21.5329 58.3856 21.5514 58.0034 21.5699C57.876 21.5699 57.7486 21.5699 57.6466 21.5884C57.3918 21.5884 57.2135 21.5329 57.188 21.3296C57.188 21.3296 57.1115 21.3111 57.0861 21.3111C57.0606 21.3111 57.0606 21.3296 57.0351 21.3481C56.9841 21.5514 56.8058 21.6069 56.551 21.6069C55.9904 21.6069 55.4553 21.6254 54.8948 21.6439C53.7227 21.6808 52.5761 21.7178 51.404 21.7178C51.0473 21.7178 50.665 21.7548 50.3083 21.7548C49.5184 21.7733 48.7285 21.7918 47.9132 21.8102C47.7858 21.8102 47.6584 21.8102 47.5565 21.8287C46.843 21.8842 46.1296 21.8842 45.4161 21.8842C44.5753 21.9027 43.7344 21.9397 42.9191 21.9581C42.6388 21.9581 42.3585 21.9766 42.0527 21.9766C41.1864 21.9951 40.2946 22.0136 39.4283 22.0506C39.1735 22.0506 38.8932 22.0876 38.6384 22.106C38.0014 22.143 37.3644 22.106 36.7528 22.1245C36.498 22.143 36.2687 22.143 36.0139 22.106C35.912 22.0876 35.8101 22.0876 35.7081 22.106C35.0966 22.1615 34.4851 22.106 33.8736 22.1245C33.2875 22.143 32.7015 22.1245 32.0899 22.143C31.5039 22.143 30.9179 22.1615 30.3063 22.18C30.128 22.18 29.9241 22.18 29.7712 22.217C29.5419 22.2539 29.3381 22.3094 29.1088 22.2724C28.8794 22.2539 28.6756 22.2909 28.4463 22.2355C28.3444 22.1985 28.1915 22.217 28.0895 22.2355C27.478 22.3279 26.841 22.3094 26.204 22.3094C25.4396 22.3094 24.7007 22.3094 23.9363 22.3094C23.4267 22.3094 22.9171 22.3094 22.4075 22.3094C21.6685 22.2909 20.9296 22.3279 20.2161 22.2724C20.1397 22.2724 20.0633 22.2724 19.9613 22.2724C19.3498 22.3464 18.7383 22.2724 18.1268 22.2539C17.9739 22.2539 17.7955 22.2355 17.6427 22.2355C17.1076 22.2539 16.5725 22.2355 16.0629 22.2355C15.8845 22.2355 15.7061 22.2355 15.5023 22.2355C15.3239 22.2355 15.1456 22.2355 14.9417 22.2355C14.4831 22.1985 13.999 22.1985 13.5403 22.1985C13.1071 22.18 12.674 22.18 12.2663 22.1615C11.5783 22.143 10.8904 22.106 10.2024 22.0876C9.28513 22.0506 8.36784 22.0321 7.45055 21.9766C6.71162 21.9397 5.94722 21.8657 5.20828 21.8102C4.92801 21.7918 4.6477 21.7178 4.36743 21.6808C4.01071 21.6254 3.73044 21.4959 3.42467 21.3665C3.27179 21.3111 3.16986 21.2001 3.14438 21.0892C3.09341 20.9413 3.04246 20.7934 3.01698 20.664C2.9915 20.3867 2.96603 20.1094 3.16988 19.8505C3.19534 19.7951 3.22083 19.7396 3.24631 19.6842C3.34822 19.4438 3.52658 19.2774 3.83235 19.148C4.01071 19.0741 4.18907 19.0186 4.4184 19.0371C4.67319 19.0371 4.95349 19.0556 5.20828 19.0556C5.33569 19.0556 5.46309 19.0556 5.565 19.0371C5.84529 18.9631 6.12556 18.9816 6.40585 19.0001C6.55873 19.0186 6.73709 19.0186 6.88998 19.0186C7.04286 19.0186 7.22122 19.0186 7.37411 18.9631C7.60344 18.8707 7.83275 18.8522 8.08755 18.8707C8.87744 18.8892 9.66731 18.8707 10.4827 18.9077C10.9668 18.9262 11.4509 18.9077 11.9351 18.9262C12.1899 18.9262 12.4702 18.9447 12.725 18.9447C13.0817 18.9447 13.4129 18.9631 13.7697 18.9631C14.5341 18.9816 15.3239 18.9447 16.0883 19.0186C16.1138 19.0186 16.1393 19.0186 16.1393 19.0186C16.2412 19.0186 16.3177 18.9816 16.3431 18.8892C16.3431 18.8152 16.4196 18.7968 16.496 18.7783C16.547 18.7783 16.6234 18.7598 16.6744 18.7783C17.133 18.8152 17.6172 18.8152 18.0758 18.8152C18.509 18.8152 18.9167 18.8707 19.3498 18.8337C19.4518 18.8337 19.5536 18.8337 19.6556 18.8152C19.8849 18.7413 20.1397 18.7598 20.369 18.7968C20.5474 18.8152 20.7258 18.8152 20.9041 18.7968C21.108 18.7783 21.3118 18.7783 21.5157 18.7783C21.6176 18.7783 21.7195 18.7783 21.8214 18.7968C22.1526 18.8892 22.4839 18.8707 22.8406 18.8707C23.3247 18.8522 23.8089 18.8707 24.3185 18.8892C24.3439 18.8892 24.3694 18.8892 24.3694 18.9077C24.3949 18.9447 24.3694 18.9631 24.3185 18.9631C24.2675 18.9816 24.1911 18.9816 24.1401 19.0001C24.1401 19.0001 24.1146 19.0186 24.1146 19.0371C24.1146 19.0556 24.1146 19.0741 24.1401 19.0741C24.1656 19.0926 24.2166 19.111 24.242 19.111C24.4204 19.111 24.5988 19.111 24.7771 19.111C24.8536 19.111 24.93 19.0741 24.9555 19.0186C25.0319 18.8522 25.2103 18.7968 25.4141 18.7783C25.7454 18.7598 26.0511 18.7228 26.3824 18.7598C26.5098 18.7783 26.6372 18.7783 26.7391 18.7598C26.892 18.7413 27.0703 18.7413 27.2232 18.7783C27.2997 18.7968 27.3761 18.7968 27.478 18.7783C27.6564 18.7598 27.8347 18.7413 28.0131 18.7783C28.0895 18.7968 28.166 18.7783 28.2424 18.7598C28.3698 18.7598 28.4972 18.7228 28.5992 18.7413C29.1597 18.7968 29.6948 18.7228 30.2554 18.7413C31.3255 18.7598 32.3702 18.6858 33.4404 18.7228C33.4914 18.7228 33.5678 18.7228 33.6188 18.7228C34.8163 18.6489 36.0139 18.6673 37.2115 18.6304C37.5172 18.6304 37.823 18.6119 38.1288 18.6304C38.409 18.6489 38.6893 18.6304 38.9696 18.5934C39.1989 18.5749 39.4028 18.5564 39.6321 18.5564C40.371 18.5379 41.11 18.5194 41.8234 18.4825C41.9763 18.4825 42.1037 18.4825 42.2566 18.4825C42.3585 18.4825 42.4604 18.501 42.5623 18.4825C43.1229 18.427 43.7089 18.4455 44.2695 18.4455C44.5243 18.4455 44.8046 18.4455 45.0594 18.427C45.3652 18.4085 45.6709 18.39 45.9767 18.4085C46.0531 18.4085 46.1296 18.4085 46.2315 18.4085C46.5372 18.39 46.843 18.3715 47.1488 18.3715C47.4545 18.3531 47.7603 18.3531 48.0661 18.2976C48.2189 18.2606 48.3973 18.2421 48.5502 18.2791C48.8814 18.3346 49.1872 18.2976 49.5184 18.2976C49.8497 18.2976 50.1809 18.2976 50.4867 18.2976C51.0473 18.2791 51.5823 18.2606 52.1429 18.2606C52.3467 18.2606 52.5506 18.2421 52.7544 18.2976C52.7799 18.2976 52.7799 18.3161 52.7799 18.3346C52.7799 18.3531 52.7799 18.3715 52.7799 18.3715C52.7544 18.39 52.729 18.4085 52.678 18.427C52.4742 18.464 52.2703 18.464 52.0665 18.4455C51.6078 18.427 51.1237 18.4825 50.665 18.4085C50.3848 18.427 50.1045 18.464 49.8242 18.4825C49.6713 18.501 49.5184 18.5194 49.391 18.501C49.1362 18.4455 48.9069 18.4825 48.6776 18.5194C48.5502 18.5379 48.4228 18.5379 48.3209 18.5379C47.8622 18.5379 47.4291 18.5564 46.9704 18.5564C46.8685 18.5564 46.7666 18.5379 46.6646 18.5379C46.4099 18.5194 46.1296 18.5194 45.8748 18.5564C45.6964 18.5934 45.518 18.5934 45.3397 18.5934C44.7791 18.5564 44.1931 18.6119 43.6325 18.6119C43.5051 18.6119 43.3777 18.6304 43.2758 18.6489C42.97 18.7228 42.6388 18.7228 42.3075 18.7228C42.0782 18.7228 41.8489 18.7228 41.645 18.7228C41.5686 18.7228 41.4922 18.7413 41.3902 18.7413C41.4412 18.7598 41.4667 18.7968 41.4922 18.7968C41.8998 18.7968 42.3075 18.7968 42.7152 18.7968C42.9955 18.7968 43.2758 18.7968 43.6325 18.8152C43.3013 18.9631 43.021 19.0371 42.7152 19.0001C42.4604 18.9631 42.1801 18.9631 41.9253 19.0186C41.7215 19.0556 41.5176 19.0371 41.3138 19.0186C41.1354 19.0001 40.9571 19.0001 40.7787 19.0371C40.5749 19.0926 40.371 19.0926 40.1672 19.0371C39.8869 18.9816 39.6066 18.9816 39.3263 19.0186C39.0461 19.0371 38.7658 19.0556 38.4855 19.0556C38.1288 19.0371 37.7466 19.0556 37.3898 19.0926C36.9567 19.1295 36.549 19.1665 36.1158 19.111C36.0139 19.0926 35.912 19.111 35.8101 19.111C35.3514 19.148 34.8673 19.185 34.4086 19.185C34.2558 19.185 34.1284 19.2035 34.0264 19.2959C33.6442 19.2774 33.6442 19.2774 33.4914 19.3329C33.6697 19.3699 33.8481 19.3514 34.001 19.2959C34.1029 19.3329 34.2303 19.3699 34.3577 19.3699C35.0711 19.3329 35.7846 19.3699 36.498 19.3699C37.186 19.3699 37.874 19.3514 38.5619 19.3144C38.8167 19.2959 39.0461 19.2959 39.3009 19.2959C39.5557 19.2959 39.785 19.2774 40.0398 19.2774C40.3456 19.2589 40.6513 19.2405 40.9571 19.2589C41.1354 19.2589 41.3138 19.2405 41.5176 19.2405C41.7724 19.2405 42.0018 19.2035 42.2566 19.2405C42.3585 19.2589 42.4604 19.2405 42.5623 19.2405C42.9445 19.2035 43.3267 19.185 43.7089 19.2035C43.9128 19.2035 44.1166 19.2035 44.3205 19.2035C44.4988 19.2035 44.6772 19.2035 44.881 19.2035C45.0594 19.2035 45.1868 19.2774 45.2632 19.3884C45.2632 19.4068 45.2887 19.4068 45.3142 19.4253C45.3397 19.4253 45.3652 19.4438 45.3652 19.4253C45.5435 19.3884 45.6964 19.3329 45.8748 19.2959C45.9257 19.2774 45.9002 19.2405 45.8748 19.222C45.8238 19.2035 45.7983 19.1665 45.8493 19.1665C46.0786 19.148 46.3079 19.148 46.5118 19.148C46.7921 19.148 47.0723 19.148 47.3526 19.111C47.5565 19.0926 47.7603 19.0926 47.9641 19.0926C48.0915 19.0926 48.2189 19.0741 48.2954 19.0186C48.3209 19.0001 48.3464 18.9631 48.3464 18.9447C48.3464 18.9262 48.3209 18.8892 48.2954 18.8707C48.2699 18.8522 48.2189 18.8522 48.168 18.8522C48.0151 18.8522 47.8877 18.8522 47.7348 18.8707C47.4291 18.8892 47.1233 18.9447 46.8175 18.9447C46.5372 18.9631 46.257 18.9447 45.9767 18.9262C45.7219 18.9077 45.4416 18.9077 45.1868 18.9447C44.932 18.9816 44.6517 18.9631 44.3969 18.9447C44.3714 18.9447 44.3459 18.9262 44.3459 18.9077C44.3714 18.8892 44.3714 18.8522 44.3969 18.8522C44.4988 18.8337 44.6007 18.8152 44.7027 18.8152C45.2123 18.7968 45.7219 18.7968 46.2315 18.7968C46.894 18.7968 47.531 18.7783 48.1935 18.7783C48.5757 18.7783 48.9579 18.7783 49.3401 18.7043C49.5439 18.6673 49.6968 18.7598 49.8752 18.7783C49.9261 18.7783 49.9516 18.8152 49.9261 18.8522C49.9261 18.8707 49.9006 18.8892 49.8752 18.8892C49.7987 18.9077 49.7223 18.9262 49.6458 18.9262C49.442 18.9077 49.2382 18.8707 49.0343 18.9077C48.9834 18.9077 48.9069 18.9262 48.8814 18.9816C48.8559 19.0186 48.9324 19.0556 49.0088 19.0741C49.0598 19.0741 49.0853 19.0741 49.1362 19.0741C49.1872 19.0741 49.2127 19.0741 49.2636 19.0741C49.8242 19.0741 50.4102 19.0926 50.9708 19.0926C51.0218 19.0926 51.0472 19.0926 51.0982 19.111C51.1237 19.1295 51.1747 19.148 51.1747 19.1665C51.1747 19.185 51.1492 19.222 51.1237 19.2405C51.0982 19.2774 51.0472 19.2959 50.9708 19.3514C51.0982 19.3514 51.1747 19.3514 51.2511 19.3514C51.353 19.3699 51.4549 19.3329 51.5059 19.2774C51.6588 19.0926 51.9136 19.0371 52.1684 19.0001C52.4996 18.9631 52.8564 18.9077 53.1876 18.9816C53.3405 19.0186 53.5188 19.0001 53.6717 19.0001C54.003 19.0001 54.3342 18.9816 54.64 18.9631C54.8183 18.9631 54.9967 18.9816 55.175 19.0186C55.3789 19.0741 55.5573 19.0741 55.7611 19.0001C55.8375 18.9631 55.9649 18.9447 56.0414 18.9631C56.2452 18.9816 56.4491 18.9447 56.6529 18.9077C56.7803 18.8892 56.9332 18.8892 57.0606 18.9447C56.9587 19.0556 56.8058 19.0926 56.6529 19.111C56.551 19.1295 56.4491 19.1295 56.3471 19.148C56.3217 19.148 56.3217 19.185 56.2962 19.2035C56.2962 19.2035 56.3217 19.222 56.3471 19.222C56.6019 19.2589 56.8313 19.2589 57.0606 19.2035C57.1625 19.185 57.2135 19.0926 57.1625 19.0186C57.137 18.9816 57.0861 18.9447 57.0606 18.9077C57.188 18.9262 57.3409 18.9447 57.4683 18.9631C57.5447 18.9816 57.6212 18.9447 57.6721 18.9077C57.6976 18.9262 57.7231 18.9447 57.7486 18.9631C57.9014 19.0556 58.0798 19.0741 58.2582 19.0001C58.3856 18.9262 58.5384 18.8892 58.7168 18.8892C59.1755 18.8522 59.6086 18.8707 60.0673 18.8707C60.2711 18.8707 60.373 18.9077 60.3985 19.0556C60.3985 19.0926 60.4495 19.0926 60.5004 19.0741C60.5259 19.0556 60.5769 19.0371 60.5769 19.0001C60.6788 18.8337 60.8317 18.7968 61.061 18.7968C61.2393 18.7968 61.3668 18.8522 61.4177 18.9816C61.4432 19.0371 61.5196 19.0371 61.5706 19.0001C61.7235 18.8337 61.9273 18.7783 62.1821 18.7783C62.5134 18.7783 62.8446 18.7598 63.1504 18.7598C63.2013 18.7598 63.2778 18.7598 63.3287 18.7598C63.4561 18.7783 63.5581 18.8152 63.609 18.9077C63.6345 18.9447 63.66 18.9816 63.7364 18.9816C63.8129 18.9816 63.8383 18.9447 63.8638 18.9077C63.8893 18.8707 63.8893 18.8152 63.9148 18.7783C63.9403 18.7413 63.9912 18.6858 64.0422 18.6858C64.2715 18.6673 64.5263 18.6304 64.7556 18.6858C65.0869 18.7598 65.3926 18.7598 65.7239 18.6858C65.9022 18.6489 66.0806 18.6304 66.259 18.6489C66.5902 18.6673 66.9214 18.6673 67.2272 18.6673C67.431 18.6673 67.6349 18.6489 67.8387 18.6304C67.9152 18.6304 67.9661 18.5749 67.9152 18.501C67.9152 18.464 67.8897 18.4455 67.8642 18.427C67.8642 18.3715 67.8642 18.3346 67.9407 18.3161C68.0171 18.2976 68.0935 18.2606 68.17 18.2606C68.3483 18.2421 68.5267 18.2606 68.7305 18.2606C68.8325 18.2606 68.9344 18.2791 69.0363 18.2606C69.3166 18.2052 69.5714 18.2421 69.7752 18.3531C69.6988 18.3715 69.5969 18.3531 69.4695 18.3531C69.3421 18.3531 69.2147 18.3531 69.1128 18.3715C68.9854 18.3715 68.8579 18.39 68.756 18.39C68.6286 18.4085 68.5522 18.464 68.5522 18.5194C68.5522 18.5749 68.6286 18.6489 68.756 18.6489C69.0618 18.6489 69.3675 18.6489 69.6733 18.6489C69.6988 18.6489 69.7497 18.6673 69.7752 18.6858L69.7752 18.7228C69.6478 18.7413 69.495 18.7598 69.3676 18.7783C69.3166 18.7783 69.2656 18.8152 69.2147 18.8337C69.2147 18.8337 69.1892 18.8707 69.2147 18.8707C69.3676 18.9262 69.5204 18.9631 69.6733 18.9262C69.9026 18.8892 70.1065 18.8337 70.3358 18.8337C70.3613 18.8337 70.3868 18.7968 70.3868 18.7783C70.3868 18.7228 70.3868 18.6858 70.4632 18.6858C70.5396 18.6858 70.6161 18.6858 70.6925 18.6858C70.718 18.6858 70.769 18.7043 70.7944 18.7413C70.9728 18.9262 71.2021 18.9816 71.4824 18.9262C71.6098 18.9077 71.7117 18.9077 71.8391 18.8892C71.8646 18.8892 71.8901 18.8337 71.8646 18.8152C71.8646 18.7783 71.8137 18.7228 71.8391 18.6858C71.8646 18.6489 71.9411 18.6304 71.992 18.6304C72.2213 18.5934 72.4761 18.5934 72.7055 18.6304C72.7309 18.6304 72.7564 18.6858 72.7309 18.7043C72.7055 18.7228 72.6545 18.7413 72.629 18.7598C72.6035 18.7783 72.5781 18.8152 72.6035 18.8337C72.6035 18.8522 72.6545 18.8892 72.68 18.8892C72.8329 18.8892 73.0112 18.8707 73.1131 18.7783C73.2151 18.6858 73.317 18.6304 73.4699 18.6304C73.7756 18.5934 74.0814 18.5749 74.3872 18.5379C74.591 18.5194 74.7948 18.5379 74.9732 18.5934C75.1006 18.6304 75.1516 18.6673 75.1261 18.6858C75.0751 18.7413 74.9987 18.7413 74.9222 18.7598C74.7948 18.7783 74.6674 18.7783 74.5655 18.7783C74.54 18.7783 74.5146 18.7968 74.4636 18.8152C74.7948 18.8337 75.1261 18.8707 75.4318 18.8892C75.5847 18.8892 75.7121 18.8892 75.865 18.8707C76.1453 18.8522 76.4256 18.8337 76.7059 18.8522C76.8333 18.8707 76.9352 18.8337 77.0626 18.8337C77.1645 18.8152 77.19 18.7783 77.139 18.6858C77.1135 18.6489 77.1135 18.6304 77.1645 18.6119C77.19 18.6119 77.2409 18.5934 77.2919 18.5934C77.4958 18.6119 77.6996 18.6119 77.9034 18.5934C78.0563 18.5749 78.2347 18.5934 78.3876 18.5934C78.5659 18.5934 78.6933 18.6304 78.7952 18.7413C78.9226 18.8707 79.101 18.8152 79.2284 18.7598C79.3048 18.7228 79.3558 18.6489 79.4323 18.5934C79.5851 18.501 79.7635 18.4455 79.9419 18.4825C80.2476 18.5564 80.5279 18.5749 80.8337 18.5564C80.9101 18.5564 80.9865 18.5749 81.063 18.5749C81.1394 18.5749 81.1394 18.6119 81.1139 18.6673C81.063 18.7783 81.0885 18.8337 81.2413 18.8337C81.649 18.8337 82.0567 18.8152 82.4644 18.8152C82.5663 18.8152 82.6937 18.7968 82.7192 18.7043C82.7702 18.5934 82.8466 18.5749 82.9995 18.5749C83.0504 18.5749 83.1269 18.5749 83.1778 18.5934C83.2288 18.5934 83.2288 18.6304 83.2288 18.6673C83.2033 18.7413 83.3053 18.7783 83.3562 18.7968C83.5346 18.8522 83.7129 18.7968 83.8658 18.7228C83.8658 18.7228 83.8403 18.6673 83.8148 18.6489C83.7894 18.6119 83.7894 18.5934 83.8403 18.5749C84.1206 18.5194 84.4009 18.5564 84.6557 18.6673L84.6557 18.6489C84.7067 18.7228 84.7831 18.7783 84.9105 18.7413L84.885 18.7598C85.0634 18.7598 85.2418 18.7228 85.4201 18.7413C85.5985 18.7598 85.7768 18.7968 85.9552 18.8152C86.0061 18.8152 86.1081 18.7783 86.1081 18.7598C86.1081 18.7413 86.0826 18.7043 86.0571 18.7043C86.0316 18.6858 85.9807 18.6858 85.9552 18.6673C85.9552 18.6673 85.9297 18.6489 85.9297 18.6304C85.9297 18.6119 85.9552 18.5934 85.9552 18.5934C86.2355 18.5749 86.5158 18.5564 86.796 18.5379C86.9489 18.5194 87.0763 18.5749 87.1273 18.6858C87.1528 18.7598 87.2547 18.7968 87.3566 18.8152C87.484 18.8337 87.6114 18.8337 87.7133 18.8337C88.2484 18.8337 88.809 18.8337 89.3441 18.8337C89.5224 18.8337 89.7008 18.8152 89.8792 18.7598C89.9046 18.7598 89.9301 18.7413 89.9301 18.7413C89.9556 18.7043 89.9301 18.6858 89.8792 18.6858C89.6498 18.6673 89.395 18.6673 89.1657 18.6489C89.1657 18.6489 89.1402 18.6304 89.1402 18.6119C89.1402 18.5934 89.1657 18.5749 89.1657 18.5749C89.2421 18.5564 89.3186 18.5379 89.395 18.5564C89.6244 18.5934 89.8282 18.6119 90.0575 18.5749C90.1849 18.5564 90.3378 18.5934 90.4652 18.5934C90.5926 18.5934 90.6945 18.6119 90.8219 18.6304C90.8219 18.6858 90.7964 18.7228 90.7964 18.7598C90.8219 18.7968 90.8729 18.8337 90.9238 18.8337C91.0512 18.8522 91.2041 18.8707 91.3315 18.8892C91.357 18.8892 91.3825 18.9262 91.408 18.9262C91.3825 18.9447 91.3315 18.9447 91.306 18.9631C91.2551 18.9816 91.2041 18.9816 91.1277 19.0001C91.1277 19.0001 91.1277 19.0186 91.1277 19.0371C91.1277 19.0556 91.1532 19.0556 91.1786 19.0556C91.4844 19.0741 91.7902 19.0001 91.994 18.8337C92.0959 18.8337 92.1979 18.8337 92.2743 18.8337C92.2998 18.8337 92.2998 18.7968 92.3253 18.7783C92.2998 18.7598 92.2488 18.7413 92.2233 18.7413C92.1469 18.7598 92.045 18.8152 91.9685 18.8337C91.9176 18.7968 91.8666 18.7413 91.8157 18.7043C91.8157 18.6858 91.7902 18.6673 91.7902 18.6673C91.8157 18.6489 91.8411 18.6119 91.8666 18.6119C92.0195 18.6119 92.1469 18.5934 92.2998 18.5934C92.4527 18.5934 92.5801 18.6304 92.682 18.7228C92.7329 18.7598 92.7839 18.7413 92.8349 18.7043C92.8858 18.6673 92.9113 18.6119 92.9623 18.6119C93.1916 18.5749 93.3954 18.5379 93.6247 18.5564C94.1344 18.6304 94.644 18.5934 95.1536 18.5749C95.281 18.5749 95.3829 18.5379 95.4848 18.4825C95.5867 18.427 95.7141 18.427 95.8161 18.4825C95.9435 18.5749 96.0963 18.5934 96.2747 18.5934C96.4531 18.5934 96.6314 18.5934 96.8353 18.5934C96.8607 18.5934 96.9117 18.6119 96.9372 18.6304C96.9627 18.6489 96.8862 18.7228 96.8353 18.7228C96.7079 18.7413 96.6059 18.7413 96.4785 18.7598C96.4276 18.7598 96.4021 18.7968 96.4276 18.8337C96.4276 18.8522 96.4531 18.8522 96.4785 18.8522C96.8607 18.8152 97.2429 18.8892 97.6251 18.8152C97.6506 18.8152 97.6761 18.7968 97.6761 18.7968C97.6506 18.7783 97.6506 18.7598 97.6251 18.7228C97.5997 18.7043 97.5742 18.6858 97.5487 18.6489C97.5487 18.6489 97.5487 18.6119 97.5742 18.6119C97.5997 18.5934 97.6506 18.5934 97.6761 18.5934C97.9309 18.5934 98.1602 18.5749 98.415 18.5934C98.7463 18.5934 99.0775 18.6119 99.3833 18.5749C99.5107 18.5564 99.6381 18.5749 99.74 18.5749C99.9948 18.5934 100.224 18.6119 100.479 18.6119C100.581 18.6119 100.632 18.6489 100.606 18.6858C100.581 18.7043 100.555 18.7228 100.504 18.7228C100.148 18.7413 99.8164 18.7598 99.4597 18.7228C99.1285 18.6858 98.7972 18.7043 98.4915 18.7043C98.466 18.7043 98.415 18.7228 98.415 18.7598C98.415 18.7783 98.4405 18.8152 98.466 18.8152C98.5934 18.8337 98.6953 18.8522 98.8227 18.8707C98.9501 18.8892 99.103 18.9262 99.2559 18.9816C99.2814 18.9816 99.3323 18.9631 99.3833 18.9447C99.5362 18.8707 99.7145 18.8337 99.8929 18.8707C100.224 18.9262 100.53 18.9077 100.861 18.9077C101.014 18.9077 101.141 18.9077 101.294 18.8892C101.498 18.8522 101.702 18.8707 101.906 18.9077C102.059 18.9447 102.212 18.9631 102.39 18.9447C102.492 18.9447 102.594 18.9631 102.696 18.9631C102.772 18.9631 102.849 18.9816 102.925 18.9816C103.638 18.9077 104.352 18.9077 105.065 18.9447C105.091 18.9447 105.116 18.9447 105.116 18.9447C105.142 18.9262 105.193 18.9262 105.218 18.9077C105.218 18.8892 105.193 18.8522 105.167 18.8337C105.065 18.7598 105.065 18.7228 105.167 18.6858C105.32 18.6489 105.473 18.6119 105.626 18.5934C105.804 18.5564 105.983 18.5564 106.136 18.6673C106.187 18.7043 106.237 18.7228 106.288 18.7228C106.492 18.7043 106.696 18.7783 106.874 18.7968C107.027 18.8152 107.206 18.8337 107.359 18.8152C107.588 18.7783 107.792 18.7968 108.021 18.8152C108.327 18.8522 108.633 18.8337 108.938 18.7598C109.04 18.7228 109.168 18.7228 109.295 18.7043C109.372 18.7043 109.473 18.7043 109.524 18.7043C109.728 18.7413 109.907 18.7968 110.11 18.7228C110.136 18.7228 110.161 18.7228 110.161 18.7228C110.62 18.8522 111.13 18.8337 111.588 18.9447C111.614 18.9447 111.614 19.0001 111.614 19.0186C111.614 19.0186 111.588 19.0371 111.563 19.0371C111.512 19.0371 111.486 19.0371 111.435 19.0371C111.232 18.9816 111.002 18.9816 110.773 19.0001C110.747 19.0001 110.697 19.0186 110.671 19.0371C110.646 19.0371 110.646 19.0556 110.646 19.0741C110.646 19.0926 110.646 19.111 110.671 19.111C110.697 19.1295 110.747 19.148 110.773 19.148C111.053 19.1665 111.334 19.1665 111.639 19.1665C111.996 19.1665 112.327 19.1665 112.684 19.222C112.939 19.2589 113.219 19.2774 113.474 19.2405C113.499 19.2405 113.55 19.2035 113.55 19.185C113.55 19.1665 113.499 19.1295 113.474 19.1295C113.372 19.111 113.27 19.111 113.168 19.0926C113.041 19.0741 112.964 19.0001 112.888 18.9447C113.219 18.9816 113.576 19.0001 113.907 19.0001C114.06 19.0001 114.238 19.0186 114.391 19.0186C114.671 19.0371 114.952 19.0556 115.232 19.0556C115.436 19.0556 115.64 19.0926 115.844 19.111C115.894 19.111 115.92 19.148 115.894 19.1665C115.894 19.185 115.869 19.185 115.844 19.185C115.665 19.185 115.487 19.185 115.308 19.185C115.054 19.185 114.824 19.1665 114.57 19.1665C114.544 19.1665 114.519 19.2035 114.519 19.222L114.544 19.259C114.722 19.3144 114.901 19.3329 115.079 19.3514C115.436 19.3699 115.818 19.3699 116.175 19.3884C116.277 19.3884 116.379 19.3514 116.43 19.2959C116.481 19.2405 116.506 19.2035 116.557 19.148C116.582 19.1295 116.633 19.111 116.659 19.111C116.71 19.111 116.786 19.111 116.837 19.148C116.888 19.185 116.863 19.222 116.837 19.259C116.786 19.3329 116.812 19.3699 116.888 19.3884C116.939 19.4069 117.016 19.4069 117.067 19.4069C117.143 19.4069 117.245 19.3884 117.245 19.3329C117.27 19.222 117.372 19.185 117.5 19.185C117.729 19.185 117.958 19.148 118.162 19.2405C118.188 19.2405 118.188 19.259 118.188 19.2774C118.188 19.2959 118.188 19.3144 118.162 19.3144C118.06 19.3329 117.984 19.3514 117.882 19.3699C117.856 19.3699 117.831 19.3884 117.831 19.3884C117.856 19.4069 117.856 19.4438 117.882 19.4438C118.239 19.4808 118.595 19.5178 118.978 19.5548C119.029 19.5548 119.054 19.5548 119.105 19.5548C119.818 19.5178 120.532 19.5917 121.22 19.6102C121.271 19.6102 121.296 19.6102 121.347 19.6102C121.831 19.5917 122.265 19.6657 122.723 19.7581C122.851 19.7766 122.953 19.7766 123.08 19.7766C123.207 19.7581 123.335 19.7396 123.437 19.7581C123.921 19.8321 124.405 19.8136 124.889 19.8506C125.322 19.8875 125.73 19.869 126.163 19.9615C126.265 19.98 126.392 19.98 126.52 19.98C126.876 19.98 127.208 19.98 127.539 20.0354C127.513 20.0539 127.463 20.0724 127.437 20.0909C127.412 20.0909 127.412 20.1094 127.412 20.1279C127.412 20.1464 127.437 20.1648 127.437 20.1648C127.488 20.1833 127.513 20.1648 127.513 20.1279C127.513 20.0909 127.513 20.0724 127.513 20.0354C127.641 20.0354 127.768 20.0169 127.87 20.0169C128.15 20.0354 128.431 20.0539 128.711 20.0909C128.966 20.1279 129.246 20.1464 129.501 20.1464C129.756 20.1464 129.985 20.1833 130.163 20.3312C130.291 20.4237 130.469 20.4237 130.597 20.3312C130.724 20.2388 130.826 20.2203 130.979 20.2388C131.081 20.2573 131.183 20.2573 131.285 20.2943C131.616 20.3682 131.947 20.4237 132.304 20.4237C132.38 20.4237 132.457 20.4422 132.533 20.4606C132.584 20.4791 132.635 20.5346 132.584 20.5716C132.559 20.5901 132.533 20.627 132.508 20.627C132.253 20.627 131.973 20.6085 131.718 20.6085C131.692 20.6085 131.641 20.627 131.616 20.627L131.59 20.664C131.641 20.738 131.718 20.8119 131.845 20.8489C132.049 20.9044 132.278 20.9413 132.508 20.9413C132.508 20.9783 132.533 21.0338 132.533 21.0707C132.559 21.1817 132.635 21.2556 132.788 21.2926C132.915 21.3111 133.068 21.3481 133.17 21.4035C133.247 21.4405 133.374 21.459 133.45 21.4405C133.807 21.3665 134.164 21.4035 134.521 21.496C134.572 21.5144 134.648 21.5329 134.699 21.5144C135.132 21.496 135.54 21.6254 135.947 21.6808C136.126 21.7178 136.304 21.7363 136.483 21.7178C136.865 21.6808 137.247 21.6993 137.629 21.7548C137.757 21.7733 137.909 21.7733 138.062 21.7733C138.164 21.7918 138.266 21.7918 138.343 21.8287C138.521 21.9027 138.674 21.9212 138.878 21.9212C139.285 21.9581 139.693 21.9951 140.101 22.0321C140.228 22.0506 140.33 22.0691 140.432 22.1245C140.457 22.143 140.457 22.18 140.457 22.1985C140.457 22.1985 140.432 22.217 140.406 22.217C140.789 22.106 140.61 22.0691 140.457 21.9951ZM105.473 19.3884L105.473 19.3699C105.473 19.3699 105.473 19.4069 105.473 19.3884C105.499 19.3884 105.499 19.3699 105.524 19.3699L105.524 19.3884C105.499 19.3884 105.499 19.3884 105.473 19.3884ZM59.2519 18.8337C59.2519 18.8522 59.2519 18.8522 59.2519 18.8707C59.2519 18.8892 59.2519 18.8892 59.2519 18.9077C59.2519 18.8707 59.2519 18.8522 59.2519 18.8337ZM70.6161 19.185C70.6161 19.2035 70.6416 19.2035 70.6416 19.222C70.6161 19.2035 70.6161 19.2035 70.6161 19.185ZM137.476 22.2724C137.502 22.2909 137.527 22.3094 137.553 22.3279C137.553 22.3279 137.578 22.3464 137.604 22.3464C137.629 22.3464 137.629 22.3279 137.655 22.3279C137.629 22.3094 137.629 22.2909 137.604 22.2724C137.553 22.2724 137.502 22.2909 137.476 22.2724ZM50.028 19.7211C50.079 19.7211 50.13 19.7211 50.1809 19.7211C50.2064 19.7211 50.2319 19.7211 50.2319 19.7027C50.2319 19.7027 50.2574 19.6842 50.2574 19.6657C50.2319 19.6657 50.1809 19.6287 50.1554 19.6472C50.1045 19.6657 50.0535 19.6842 50.028 19.7211ZM67.6349 18.6489C67.7113 18.7228 67.8387 18.7413 67.9661 18.7413C68.0171 18.7413 68.0935 18.7413 68.0935 18.6858C68.119 18.6489 68.0426 18.6119 67.9661 18.6119C67.8642 18.6304 67.7368 18.6489 67.6349 18.6489ZM129.603 20.3867C129.705 20.4606 129.807 20.5161 129.96 20.5161C130.087 20.5161 130.189 20.5161 130.316 20.5161C130.367 20.5161 130.393 20.4976 130.342 20.4422C130.112 20.4237 129.858 20.4052 129.603 20.3867C129.552 20.3867 129.526 20.3867 129.475 20.3867C129.45 20.3867 129.424 20.3867 129.424 20.3867L129.399 20.4052C129.424 20.4052 129.475 20.4237 129.501 20.4052C129.526 20.4052 129.577 20.3867 129.603 20.3867ZM129.119 20.627C129.144 20.664 129.17 20.701 129.221 20.738C129.272 20.7749 129.348 20.8304 129.424 20.8304C129.73 20.8674 130.011 20.9044 130.316 20.8674C130.342 20.8674 130.367 20.8304 130.367 20.7934C130.367 20.7749 130.316 20.738 130.291 20.738C130.24 20.738 130.163 20.738 130.112 20.738C129.781 20.7749 129.475 20.738 129.119 20.627C128.94 20.627 128.762 20.6455 128.584 20.6455C128.533 20.6455 128.507 20.6455 128.456 20.6455C128.431 20.664 128.405 20.6825 128.405 20.701C128.431 20.7195 128.456 20.738 128.507 20.738C128.711 20.7749 128.915 20.701 129.119 20.627ZM99.9948 19.4993C100.224 19.6287 100.479 19.6102 100.759 19.6102C100.785 19.5732 100.759 19.5548 100.708 19.5363C100.632 19.4993 100.581 19.4623 100.606 19.3884C100.632 19.3329 100.708 19.2959 100.785 19.2774C100.836 19.2589 100.912 19.2589 100.963 19.2589C101.04 19.2589 101.116 19.2589 101.218 19.2589C101.32 19.2589 101.371 19.2035 101.32 19.185C101.294 19.1665 101.243 19.148 101.218 19.148C100.938 19.185 100.657 19.185 100.377 19.185C100.25 19.185 100.224 19.222 100.275 19.3144C100.326 19.4069 100.301 19.4623 100.173 19.4808C100.122 19.4993 100.046 19.4993 99.9948 19.4993C99.9693 19.4993 99.9693 19.4993 99.9438 19.4993C99.9693 19.4993 99.9948 19.4993 99.9948 19.4993ZM127.539 20.5161C127.361 20.5531 127.208 20.5901 127.029 20.6455L127.029 20.6825C127.233 20.7564 127.437 20.7749 127.666 20.7564C127.692 20.7564 127.692 20.738 127.717 20.7195C127.717 20.701 127.743 20.6825 127.717 20.6825C127.641 20.6085 127.59 20.5531 127.539 20.5161C127.768 20.4237 128.023 20.4052 128.303 20.4237C128.431 20.4237 128.533 20.4422 128.66 20.4422C128.686 20.4422 128.711 20.4052 128.737 20.3867C128.737 20.3867 128.711 20.3682 128.711 20.3497C128.558 20.2943 128.431 20.2388 128.278 20.1833C127.998 20.2758 127.692 20.2573 127.386 20.2573C127.259 20.2573 127.157 20.2388 127.029 20.2388C127.004 20.2388 126.953 20.2573 126.927 20.2758C126.927 20.2758 126.902 20.2943 126.902 20.3127C126.902 20.3312 126.927 20.3497 126.927 20.3497C127.029 20.3682 127.131 20.3682 127.233 20.3682C127.335 20.3497 127.463 20.4052 127.539 20.5161ZM131.31 20.5531C131.31 20.6085 131.285 20.664 131.285 20.7195C131.259 20.7749 131.234 20.8304 131.132 20.8489C131.081 20.8674 131.004 20.8859 131.055 20.9413C131.539 21.0338 132.049 21.0707 132.559 21.0338C132.61 21.0338 132.635 20.9968 132.635 20.9783C132.635 20.9598 132.584 20.9228 132.559 20.9228C132.508 20.9044 132.431 20.9044 132.38 20.9044C132.202 20.9413 132.023 20.9044 131.845 20.8489C131.743 20.8119 131.692 20.7564 131.667 20.6825C131.641 20.5716 131.565 20.5346 131.412 20.5346C131.386 20.5531 131.336 20.5531 131.31 20.5531ZM30.1534 19.0001C29.6948 19.148 29.6184 19.1665 29.2107 19.185C28.803 19.185 28.3953 19.2035 27.9876 19.2035C27.6054 19.2035 27.2232 19.2035 26.841 19.2035C26.8155 19.2035 26.7901 19.222 26.7901 19.222C26.7646 19.2405 26.7901 19.2774 26.841 19.2774C27.1213 19.2774 27.4016 19.2589 27.6819 19.2774C28.3698 19.2774 29.0578 19.2959 29.7458 19.2774C29.9496 19.2774 30.1534 19.2589 30.3573 19.2774C30.9179 19.3144 31.5039 19.2774 32.0645 19.2589C32.2683 19.2589 32.4722 19.222 32.6505 19.185C32.6505 19.185 32.676 19.1665 32.676 19.148C32.676 19.1295 32.6505 19.1295 32.6505 19.111C32.3702 19.0926 32.0899 19.0741 31.8097 19.0556C31.5294 19.0556 31.2491 19.0926 30.9688 19.0556C30.6885 19.111 30.4082 19.0741 30.1534 19.0001ZM24.2165 19.185C23.7579 19.185 23.2738 19.185 22.8151 19.185C22.7642 19.185 22.6877 19.2035 22.6368 19.2035C22.6368 19.2035 22.6113 19.222 22.6113 19.2405C22.6113 19.2589 22.6113 19.2774 22.6368 19.2774C22.7132 19.2959 22.7897 19.3144 22.8661 19.3144C23.4267 19.3144 23.9617 19.3329 24.5223 19.3329C24.879 19.3329 25.2612 19.3144 25.618 19.3144C25.6689 19.3144 25.7199 19.2959 25.7708 19.2774C25.7708 19.2774 25.7963 19.2405 25.7708 19.2405C25.7199 19.222 25.6689 19.185 25.618 19.185C25.1593 19.185 24.6752 19.185 24.2165 19.185ZM26.6627 18.9262C27.0958 18.9077 27.4525 18.9631 27.8093 18.9447C28.0131 18.9447 28.2169 18.9447 28.4208 18.9447C28.9814 18.9447 29.5674 18.9262 30.128 18.9262C30.2044 18.9262 30.2554 18.8707 30.2299 18.8522C30.2044 18.8337 30.1789 18.7968 30.1534 18.7968C29.8732 18.7598 29.5929 18.7413 29.3126 18.7598C28.9814 18.7968 28.6246 18.8337 28.2934 18.7783C28.2424 18.7783 28.2169 18.7783 28.166 18.7783C27.8347 18.8337 27.478 18.8152 27.1213 18.8152C26.9939 18.8152 26.841 18.8152 26.6627 18.9262ZM134.062 21.6993C134.189 21.6993 134.342 21.7178 134.47 21.7178C134.979 21.7548 135.489 21.7918 135.973 21.9027C136.253 21.9766 136.533 21.9581 136.814 21.8842C136.839 21.8842 136.865 21.8657 136.839 21.8472C136.839 21.8287 136.839 21.7918 136.814 21.7733C136.661 21.7178 136.457 21.6993 136.279 21.6808C135.642 21.6623 134.979 21.6254 134.342 21.6069C134.266 21.6069 134.189 21.6069 134.113 21.6254C134.062 21.6439 134.036 21.6623 134.062 21.6993ZM34.1793 18.7968C34.4087 18.8152 34.536 18.8337 34.6635 18.8337C35.3769 18.8337 36.0903 18.8152 36.7783 18.8152C36.8548 18.8152 36.9312 18.8152 37.0076 18.7968C37.0331 18.7968 37.0841 18.7783 37.1096 18.7598C37.1096 18.7598 37.135 18.7228 37.1096 18.7228C37.0586 18.7043 37.0076 18.6673 36.9567 18.6673C36.3451 18.7043 35.7591 18.6304 35.1476 18.6858C34.8418 18.6673 34.5615 18.7043 34.1793 18.7968ZM38.0268 18.7228C38.2307 18.7783 38.4345 18.7783 38.6384 18.7598C39.2754 18.7413 39.9379 18.7228 40.5749 18.7043C40.6258 18.7043 40.7023 18.6858 40.7532 18.6858C40.8042 18.6858 40.8297 18.6489 40.8042 18.6304C40.8042 18.6119 40.7787 18.6119 40.7532 18.6119C40.3201 18.6119 39.9124 18.6304 39.4792 18.5749C39.3518 18.5564 39.1989 18.5564 39.0461 18.5564C38.6893 18.5564 38.511 18.5749 38.0268 18.7228ZM118.341 20.0724C118.239 20.0724 118.137 20.0724 118.035 20.0724C118.009 20.0724 117.958 20.1094 117.958 20.1279C117.958 20.1464 117.984 20.1833 118.009 20.1833C118.341 20.2573 118.672 20.2758 119.029 20.2573C119.181 20.2573 119.309 20.2388 119.462 20.2388C119.742 20.2573 120.022 20.2758 120.303 20.2943C120.455 20.2943 120.634 20.2943 120.787 20.2943C120.812 20.2943 120.838 20.2758 120.838 20.2758C120.838 20.2573 120.812 20.2203 120.787 20.2018C120.685 20.1464 120.557 20.1464 120.43 20.1464C120.124 20.1464 119.818 20.1279 119.513 20.1464C119.207 20.1648 118.927 20.0724 118.621 20.0539C118.544 20.0724 118.443 20.0724 118.341 20.0724ZM124.532 20.4237C124.456 20.4237 124.405 20.4237 124.328 20.4422C124.303 20.4422 124.277 20.4606 124.227 20.4791C124.252 20.4976 124.277 20.5161 124.328 20.5346C124.405 20.5531 124.481 20.5716 124.558 20.5716C125.067 20.6085 125.577 20.627 126.087 20.6455C126.112 20.6455 126.138 20.6455 126.138 20.627C126.163 20.627 126.163 20.6085 126.163 20.5901C126.163 20.5716 126.163 20.5531 126.138 20.5531C125.908 20.5346 125.653 20.4976 125.424 20.4791C125.144 20.4606 124.838 20.4422 124.532 20.4237ZM94.4656 18.464C94.3127 18.464 94.1344 18.4825 93.9815 18.4825C93.956 18.4825 93.905 18.5194 93.905 18.5379C93.905 18.5564 93.9305 18.6119 93.956 18.6119C94.3127 18.6673 94.6694 18.6858 95.0262 18.6489C95.0516 18.6489 95.1026 18.6119 95.1026 18.5934C95.1026 18.5749 95.0771 18.5379 95.0516 18.5194C94.8733 18.464 94.6694 18.464 94.4656 18.464ZM136.432 22.3094C136.483 22.3094 136.508 22.3094 136.533 22.3094C136.559 22.2909 136.584 22.2724 136.61 22.2539C136.584 22.2355 136.559 22.1985 136.533 22.1985C136.304 22.18 136.049 22.143 135.82 22.1245C135.616 22.1245 135.412 22.106 135.234 22.0691C135.081 22.0506 134.928 22.0506 134.75 22.0321C134.75 22.0321 134.724 22.0506 134.724 22.0691C134.724 22.0876 134.75 22.106 134.75 22.106C134.801 22.1245 134.877 22.1245 134.928 22.143C135.31 22.1615 135.693 22.1985 136.049 22.2724C136.177 22.2909 136.33 22.2909 136.432 22.3094ZM92.9113 19.4993L92.9368 19.5178C93.4209 19.5363 93.905 19.5548 94.3892 19.5548C94.6694 19.5548 94.9497 19.5363 95.281 19.5178C94.3127 19.4069 94.2108 19.4438 92.9113 19.4993ZM32.2938 18.7968C31.8351 18.6858 31.4275 18.7413 31.0198 18.8152C30.9943 18.8152 30.9943 18.8337 30.9943 18.8522C30.9943 18.8707 30.9943 18.8892 31.0198 18.8892C31.0962 18.9077 31.1727 18.9262 31.2491 18.9262C31.6058 18.9262 31.9371 18.8707 32.2938 18.7968ZM63.66 19.3884C63.5581 19.3514 63.4561 19.3144 63.3287 19.2774C63.2268 19.2405 63.1249 19.2589 63.0484 19.2959C62.972 19.3329 62.9465 19.4068 62.9975 19.4438C63.0739 19.4993 63.1249 19.5548 63.0994 19.6287C63.0994 19.6842 63.2268 19.7211 63.2778 19.7027C63.4052 19.6287 63.5071 19.5548 63.6345 19.4808C63.6345 19.4438 63.6345 19.4253 63.66 19.3884ZM125.373 20.2573C125.348 20.2573 125.45 20.2573 125.552 20.2388C125.577 20.2388 125.628 20.2018 125.628 20.1833C125.628 20.1648 125.628 20.1279 125.602 20.1094C125.526 20.0539 125.424 19.9985 125.348 20.0354C125.093 20.0909 124.838 20.0724 124.583 20.1094C124.558 20.1094 124.558 20.1279 124.558 20.1464C124.558 20.1648 124.583 20.1833 124.583 20.1833C124.762 20.2573 124.991 20.2573 125.373 20.2573ZM126.01 21.1632C126.138 21.1447 126.265 21.1447 126.367 21.1262C126.392 21.1262 126.392 21.1077 126.392 21.0892C126.392 21.0707 126.367 21.0153 126.341 21.0153C126.087 20.9968 125.832 20.9598 125.577 20.9413C125.475 20.9413 125.373 20.9598 125.271 20.9598C125.22 20.9598 125.195 20.9783 125.195 21.0153C125.195 21.0338 125.246 21.0707 125.271 21.0707C125.552 21.1262 125.781 21.1447 126.01 21.1632ZM75.4828 19.3144C75.5847 19.3144 75.6867 19.2959 75.7886 19.2774C75.814 19.2774 75.865 19.2405 75.865 19.222C75.8905 19.185 75.865 19.1295 75.8395 19.0926C75.6867 18.9447 75.3044 19.0186 75.2535 19.2035C75.2535 19.222 75.279 19.2589 75.3045 19.2774C75.3809 19.2959 75.4319 19.2959 75.4828 19.3144ZM120.71 19.8875C120.838 19.906 120.94 19.8506 120.94 19.7951C120.94 19.7396 120.94 19.6842 120.914 19.6287C120.838 19.5363 120.659 19.5178 120.557 19.5732C120.481 19.6102 120.481 19.7396 120.583 19.8136C120.608 19.8506 120.685 19.869 120.71 19.8875ZM66.3864 19.7211C66.4628 19.7211 66.6157 19.7027 66.7431 19.6842C66.7686 19.6842 66.8195 19.6657 66.845 19.6472C66.845 19.6472 66.845 19.6287 66.845 19.6102C66.845 19.5917 66.8195 19.5917 66.794 19.5732C66.6157 19.5363 66.4373 19.5178 66.259 19.5732C66.208 19.5917 66.157 19.6287 66.1316 19.6472C66.1061 19.6657 66.1825 19.7211 66.259 19.7211C66.2844 19.7211 66.3099 19.7211 66.3864 19.7211ZM22.3565 18.8152C22.2546 18.8337 22.1526 18.8337 22.0507 18.8337C21.9998 18.8337 21.9743 18.8522 21.9743 18.8892C21.9743 18.9077 21.9998 18.9077 22.0252 18.9077C22.2036 18.9262 22.382 18.9447 22.5603 18.9631C22.6113 18.9631 22.6877 18.9631 22.7387 18.9447C22.7642 18.9447 22.7897 18.9077 22.8406 18.8892C22.8151 18.8707 22.7897 18.8337 22.7642 18.8337C22.6368 18.8337 22.5094 18.8337 22.3565 18.8152ZM69.7752 19.0001C69.8517 19.0001 69.9026 19.0001 69.9281 18.9816C69.9536 18.9631 69.9791 18.9447 69.9791 18.9077L69.9536 18.8707C69.8262 18.8152 69.6224 18.8337 69.5204 18.9077L69.5204 18.9447C69.5969 18.9816 69.6988 18.9816 69.7752 19.0001ZM98.8482 19.5917C98.9246 19.5732 98.9501 19.5732 99.0011 19.5732C99.0266 19.5548 99.052 19.5363 99.052 19.4993C99.052 19.4993 99.0266 19.4808 99.0266 19.4623C98.8992 19.4253 98.7718 19.4253 98.6189 19.4438C98.5679 19.4438 98.5424 19.4808 98.5679 19.4993C98.5679 19.5178 98.5934 19.5178 98.5934 19.5363C98.6953 19.5732 98.7718 19.5732 98.8482 19.5917ZM82.6173 19.1665C82.5918 19.148 82.5918 19.1295 82.5918 19.1295C82.388 19.0926 82.1586 19.0926 81.9293 19.111C81.8784 19.111 81.8529 19.1295 81.8783 19.1665C81.8783 19.185 81.9038 19.185 81.9293 19.185C82.1586 19.2405 82.388 19.222 82.6173 19.1665ZM60.0418 19.7027C59.9653 19.7027 59.8889 19.7211 59.8379 19.7211C59.8125 19.7211 59.787 19.7396 59.787 19.7396C59.7615 19.7581 59.7615 19.7951 59.8125 19.8136C59.8634 19.8321 59.9144 19.869 59.9653 19.8875C60.0673 19.9245 60.1947 19.906 60.2711 19.8136C60.2966 19.7951 60.2711 19.7396 60.2456 19.7396C60.1692 19.7211 60.0927 19.7211 60.0418 19.7027ZM74.7184 19.6657C74.8458 19.6657 74.9222 19.6102 74.9477 19.5363C74.9477 19.5178 74.9222 19.4808 74.8968 19.4623C74.7948 19.4253 74.6929 19.4438 74.6165 19.4808C74.5655 19.4993 74.5655 19.5732 74.591 19.5917C74.642 19.6287 74.6929 19.6472 74.7184 19.6657ZM91.6118 19.148C91.5863 19.1295 91.5608 19.0741 91.5608 19.0741C91.4334 19.0741 91.3315 19.0926 91.2041 19.0926C91.1786 19.0926 91.1786 19.111 91.1786 19.1295C91.1786 19.148 91.1786 19.1665 91.1786 19.1665C91.306 19.2589 91.408 19.2589 91.5608 19.2035C91.5608 19.2035 91.5863 19.1665 91.6118 19.148ZM106.925 18.8522C107.027 18.8337 107.104 18.8337 107.18 18.8152C107.231 18.8152 107.257 18.7783 107.231 18.7413C107.231 18.7228 107.206 18.7228 107.18 18.7043C107.027 18.6673 106.874 18.6673 106.722 18.7413L106.722 18.7783C106.798 18.8152 106.874 18.8337 106.925 18.8522ZM84.1716 19.4993C84.4264 19.5178 84.5538 19.5363 84.6812 19.5548C84.7067 19.5548 84.7321 19.5363 84.7321 19.5363C84.7321 19.4993 84.7067 19.4808 84.6812 19.4808C84.5283 19.4623 84.3754 19.4438 84.1716 19.4993ZM106.034 19.7396C106.136 19.7396 106.187 19.7396 106.212 19.7396C106.237 19.7396 106.288 19.7027 106.314 19.6842C106.339 19.6657 106.263 19.6102 106.187 19.6102C106.059 19.6102 105.957 19.6287 105.83 19.6287C105.804 19.6287 105.779 19.6472 105.779 19.6472C105.804 19.6657 105.804 19.7027 105.855 19.7027C105.932 19.7396 106.008 19.7396 106.034 19.7396ZM86.4393 18.7783C86.4393 18.7968 86.4393 18.7968 86.4138 18.8152C86.4903 18.8152 86.5667 18.8337 86.6432 18.8152C86.7196 18.8152 86.796 18.8337 86.847 18.7783C86.7196 18.7783 86.5667 18.7783 86.4393 18.7783ZM46.5882 19.8506C46.5882 19.8321 46.5882 19.8136 46.5627 19.8136C46.4863 19.7581 46.3844 19.7581 46.3079 19.8136C46.2824 19.8321 46.2824 19.869 46.2824 19.8875C46.3589 19.98 46.5118 19.98 46.5627 19.8875C46.5882 19.8875 46.5882 19.869 46.5882 19.8506ZM99.2559 19.148C99.2559 19.0926 99.2304 19.0371 99.1794 19.0556C99.154 19.0556 99.103 19.0741 99.0775 19.0926C99.052 19.111 99.0266 19.148 99.0266 19.1665C99.0011 19.2035 99.052 19.2589 99.103 19.2589C99.2049 19.2405 99.2559 19.222 99.2559 19.148ZM87.3566 19.1295C87.3311 19.111 87.3056 19.0741 87.2802 19.0741C87.2037 19.0741 87.1273 19.0926 87.0508 19.0926C87.0254 19.0926 86.9999 19.111 86.9999 19.111C86.9999 19.1295 87.0254 19.1665 87.0254 19.185C87.1018 19.2405 87.2037 19.2405 87.2802 19.185C87.3311 19.185 87.3311 19.148 87.3566 19.1295ZM26.0002 18.8707C25.8218 18.8522 25.8218 18.8522 25.6689 18.8892C25.7708 18.8892 25.8728 18.9262 26.0002 18.8707ZM72.8329 19.5732C72.8329 19.5548 72.8329 19.5363 72.8074 19.5178C72.7564 19.4808 72.7055 19.4623 72.6545 19.4993C72.629 19.5178 72.6035 19.5363 72.6035 19.5732C72.6035 19.5917 72.6545 19.6287 72.68 19.6287C72.7309 19.6102 72.7819 19.5917 72.8329 19.5732ZM120.685 20.8674C120.71 20.8674 120.736 20.8489 120.736 20.8489C120.736 20.8304 120.736 20.8119 120.736 20.8119C120.659 20.7934 120.608 20.7564 120.532 20.738C120.506 20.738 120.481 20.738 120.481 20.738C120.481 20.7564 120.481 20.7934 120.481 20.8119C120.532 20.8674 120.608 20.8859 120.685 20.8674ZM88.0701 19.4993C88.172 19.4993 88.2229 19.4808 88.2229 19.4438C88.2229 19.4069 88.1975 19.3884 88.1465 19.3884C88.0955 19.3884 88.0446 19.4069 88.0191 19.4438C88.0191 19.4808 88.0446 19.4993 88.0701 19.4993ZM79.4068 19.148C79.3813 19.1295 79.3303 19.0926 79.3048 19.0741C79.2539 19.0556 79.2029 19.0926 79.152 19.1295C79.1265 19.1665 79.152 19.222 79.2029 19.2405C79.3048 19.2589 79.3813 19.222 79.4068 19.148ZM53.2385 19.8136C53.264 19.8136 53.2895 19.8136 53.2895 19.8136C53.366 19.7951 53.4169 19.7396 53.4424 19.6842C53.4424 19.6657 53.4169 19.6287 53.3914 19.6102L53.3405 19.6102C53.2385 19.6472 53.1876 19.6842 53.2131 19.7766C53.2131 19.7766 53.2385 19.7951 53.2385 19.8136ZM78.0818 20.4237C78.0818 20.3867 78.0563 20.3682 78.0054 20.3682C77.9544 20.3682 77.9289 20.3867 77.9289 20.4237C77.9289 20.4606 77.9544 20.4791 78.0054 20.4791C78.0563 20.4791 78.0818 20.4606 78.0818 20.4237ZM133.756 22.0321C133.782 22.0321 133.833 22.0321 133.858 22.0321C133.884 22.0321 133.909 21.9951 133.909 21.9766L133.884 21.9581C133.807 21.9581 133.731 21.9397 133.654 21.9581C133.629 21.9581 133.603 21.9951 133.578 22.0136C133.603 22.0136 133.603 22.0321 133.629 22.0321C133.68 22.0321 133.705 22.0321 133.756 22.0321ZM109.219 18.7783C109.168 18.7783 109.091 18.8337 109.117 18.8522C109.142 18.8707 109.168 18.8892 109.219 18.8892C109.244 18.8892 109.27 18.8892 109.27 18.8892C109.295 18.8707 109.346 18.8522 109.346 18.8337C109.346 18.8152 109.321 18.7968 109.27 18.7783C109.27 18.7783 109.244 18.7783 109.219 18.7783ZM90.1594 19.185C90.2104 19.185 90.2359 19.185 90.2359 19.185C90.2868 19.185 90.3123 19.1665 90.2868 19.148C90.2868 19.148 90.2614 19.1295 90.2359 19.1295C90.2104 19.1295 90.1849 19.1295 90.1849 19.1295C90.134 19.1295 90.083 19.148 90.032 19.1665C90.083 19.148 90.134 19.1665 90.1594 19.185ZM83.5601 18.8337C83.5601 18.8152 83.5601 18.7968 83.5601 18.7783C83.5091 18.7783 83.4581 18.7598 83.4072 18.7598C83.3817 18.7598 83.3562 18.7783 83.3562 18.7783C83.3817 18.7968 83.3817 18.8337 83.4072 18.8337C83.4581 18.8522 83.5091 18.8337 83.5601 18.8337ZM112.531 19.9245C112.557 19.9245 112.608 19.943 112.658 19.943C112.709 19.943 112.76 19.8875 112.76 19.8506C112.735 19.8136 112.658 19.7951 112.608 19.8136C112.531 19.8321 112.48 19.869 112.531 19.9245ZM121.271 20.0539C121.322 20.0539 121.398 20.0539 121.424 20.0354C121.449 20.0354 121.449 19.9985 121.475 19.9615C121.449 19.943 121.398 19.9245 121.373 19.9245C121.347 19.9245 121.296 19.943 121.271 19.9615C121.245 19.98 121.271 20.0169 121.271 20.0539ZM123.258 20.4052C123.258 20.3867 123.258 20.3682 123.233 20.3682C123.156 20.3312 123.08 20.3312 123.003 20.3682C123.003 20.3682 122.978 20.4052 123.003 20.4052C123.029 20.4422 123.105 20.4606 123.156 20.4422C123.207 20.4422 123.233 20.4052 123.258 20.4052ZM54.2832 19.6842C54.2832 19.6657 54.2578 19.6472 54.2578 19.6472C54.2068 19.6472 54.1558 19.6472 54.0794 19.6472C54.0539 19.6472 54.0284 19.6657 54.0284 19.6657C54.0539 19.6842 54.0539 19.7211 54.0794 19.7211C54.2068 19.7396 54.3087 19.7211 54.2832 19.6842ZM48.1935 19.2405C48.2189 19.222 48.2699 19.2035 48.2699 19.185C48.2954 19.148 48.2189 19.111 48.168 19.111C48.1425 19.111 48.0915 19.148 48.0915 19.1665C48.0661 19.222 48.117 19.2589 48.1935 19.2405ZM59.3029 19.5178C59.3283 19.5178 59.3283 19.5363 59.3538 19.5363C59.4048 19.5363 59.4303 19.5363 59.4812 19.5178C59.5067 19.5178 59.5067 19.4993 59.5067 19.4808C59.5067 19.4438 59.4303 19.4253 59.3538 19.4438C59.3028 19.4623 59.2774 19.4808 59.3029 19.5178ZM115.41 20.0539C115.461 20.0539 115.487 20.0539 115.487 20.0169C115.487 19.9985 115.461 19.9985 115.436 19.9985C115.41 19.9985 115.359 19.9985 115.334 20.0169C115.308 20.0354 115.359 20.0539 115.41 20.0539ZM50.6141 19.98C50.665 19.98 50.6905 19.9615 50.6905 19.9245C50.665 19.906 50.6396 19.8875 50.5886 19.8875C50.5631 19.8875 50.5122 19.906 50.4867 19.9245C50.4867 19.9245 50.4867 19.9615 50.5122 19.9615C50.5377 19.98 50.5631 19.98 50.6141 19.98ZM107.537 19.7766C107.537 19.7581 107.562 19.7396 107.562 19.7027C107.562 19.7027 107.537 19.6842 107.511 19.6842C107.486 19.7027 107.461 19.7211 107.461 19.7396C107.461 19.7766 107.486 19.7951 107.537 19.7766ZM86.3629 19.5178C86.3884 19.5178 86.4138 19.4993 86.4648 19.4993C86.4393 19.4808 86.4393 19.4623 86.4393 19.4623C86.4138 19.4623 86.3629 19.4808 86.3374 19.4808C86.3374 19.4993 86.3374 19.4993 86.3629 19.5178ZM76.3237 19.5363C76.3491 19.5363 76.3746 19.5178 76.3746 19.5178C76.4001 19.4808 76.3491 19.4623 76.2982 19.4808C76.2727 19.4808 76.2472 19.4993 76.2217 19.5178C76.2472 19.5178 76.2472 19.5363 76.2727 19.5363C76.2727 19.5363 76.2982 19.5363 76.3237 19.5363ZM132.38 21.9212C132.406 21.9212 132.431 21.9212 132.431 21.9212C132.457 21.9212 132.457 21.9027 132.457 21.9027C132.431 21.9027 132.406 21.8842 132.355 21.8842L132.329 21.9027C132.355 21.9027 132.38 21.9027 132.38 21.9212ZM109.83 19.111C109.83 19.1295 109.83 19.148 109.856 19.148C109.907 19.1665 109.932 19.148 109.932 19.1295C109.932 19.111 109.932 19.0926 109.907 19.0926C109.881 19.0556 109.856 19.0741 109.83 19.111ZM116.812 20.0539C116.812 20.0354 116.812 20.0169 116.812 20.0169C116.786 20.0169 116.735 20.0169 116.71 20.0169C116.71 20.0354 116.71 20.0539 116.735 20.0539C116.761 20.0909 116.786 20.0909 116.812 20.0539ZM112.557 19.6102C112.582 19.6102 112.633 19.5917 112.658 19.5917C112.658 19.5732 112.633 19.5363 112.633 19.5363C112.608 19.5363 112.557 19.5363 112.557 19.5548C112.48 19.5732 112.506 19.5917 112.557 19.6102ZM111.767 19.869C111.792 19.869 111.818 19.8506 111.869 19.8506C111.869 19.8321 111.869 19.8136 111.843 19.8136C111.818 19.8136 111.792 19.8136 111.741 19.8321C111.767 19.8506 111.767 19.869 111.767 19.869ZM59.8889 21.2186L59.8634 21.2002L59.8379 21.2371L59.8889 21.2186ZM111.053 19.869C111.079 19.869 111.079 19.8506 111.104 19.8506C111.104 19.8321 111.079 19.8321 111.079 19.8321C111.028 19.8136 111.002 19.8321 111.028 19.869C111.002 19.869 111.028 19.869 111.053 19.869ZM109.881 18.9077C109.932 18.9077 109.958 18.8892 109.958 18.8707C109.958 18.8522 109.932 18.8337 109.932 18.8337C109.907 18.8337 109.881 18.8522 109.83 18.8522C109.856 18.8707 109.881 18.8892 109.881 18.9077ZM63.2268 19.0741C63.2523 19.0741 63.2523 19.0556 63.2778 19.0556C63.2778 19.0371 63.2523 19.0371 63.2523 19.0186C63.2013 19.0001 63.1758 19.0186 63.2013 19.0556C63.1758 19.0741 63.2013 19.0741 63.2268 19.0741ZM64.1186 19.4438C64.0931 19.4808 64.1186 19.4993 64.1696 19.4808L64.1696 19.4438C64.1441 19.4438 64.1186 19.4438 64.1186 19.4438ZM56.8313 19.6472L56.8313 19.6842L56.8822 19.6657L56.8313 19.6472ZM93.5228 19.148L93.5483 19.1665C93.5993 19.1665 93.6247 19.148 93.5993 19.1295C93.5993 19.1295 93.5738 19.1295 93.5483 19.1295C93.5483 19.1295 93.5228 19.1295 93.5228 19.148ZM102.008 19.5917C102.033 19.5917 102.033 19.5917 102.059 19.5732L102.033 19.5548C102.033 19.5548 102.008 19.5548 101.982 19.5732C101.982 19.5917 101.982 19.5917 102.008 19.5917ZM77.1135 19.5178C77.1645 19.5178 77.2155 19.5363 77.2155 19.4623C77.2155 19.4623 77.1645 19.4623 77.1135 19.4623L77.0881 19.4808C77.0881 19.5178 77.1135 19.5178 77.1135 19.5178ZM128.456 21.2186L128.482 21.2371L128.507 21.2186L128.482 21.2002C128.482 21.2002 128.456 21.2002 128.456 21.2186ZM131.106 20.4052C131.132 20.4052 131.132 20.3867 131.157 20.3867L131.132 20.3682C131.132 20.3682 131.106 20.3682 131.081 20.3867C131.081 20.3867 131.081 20.3867 131.106 20.4052ZM125.934 21.4775C125.959 21.4775 125.959 21.459 125.985 21.459C125.985 21.4405 125.959 21.4405 125.959 21.422C125.908 21.4035 125.883 21.422 125.908 21.459C125.883 21.4775 125.908 21.4775 125.934 21.4775ZM41.9508 19.3514L42.0018 19.3514C42.0272 19.3144 42.0018 19.3144 41.9508 19.3144C41.9253 19.3144 41.9253 19.3329 41.8998 19.3329C41.8998 19.3329 41.9253 19.3329 41.9508 19.3514ZM33.4659 18.7968C33.4659 18.7783 33.4404 18.7598 33.4404 18.7598C33.4149 18.7598 33.364 18.7598 33.3385 18.7783C33.3385 18.7968 33.364 18.8152 33.364 18.8152C33.3894 18.8152 33.4149 18.7968 33.4659 18.7968ZM65.622 19.0001C65.6474 19.0001 65.6474 19.0186 65.6729 19.0001L65.6984 18.9816C65.6984 18.9447 65.6474 18.9447 65.622 18.9631C65.5965 18.9631 65.622 18.9816 65.622 19.0001ZM129.628 20.1094C129.603 20.0909 129.603 20.0909 129.577 20.0909C129.552 20.0909 129.552 20.1094 129.526 20.1094C129.552 20.1279 129.552 20.1279 129.577 20.1279C129.577 20.1279 129.603 20.1279 129.628 20.1094ZM68.6796 18.5934C68.6541 18.5934 68.6541 18.5749 68.6286 18.5934C68.5777 18.6119 68.5777 18.6304 68.6286 18.6304C68.6286 18.6304 68.6541 18.6304 68.6796 18.6304C68.6796 18.6119 68.6796 18.6119 68.6796 18.5934ZM102.747 18.9447C102.721 18.9447 102.721 18.9262 102.696 18.9262C102.645 18.9447 102.645 18.9631 102.696 18.9816L102.747 18.9816C102.747 18.9816 102.747 18.9631 102.747 18.9447ZM131.336 21.8102L131.31 21.7918L131.31 21.8102L131.336 21.8102ZM76.1453 18.8892L76.1453 18.8522L76.0943 18.8707L76.1453 18.8892ZM131.641 21.5514L131.692 21.5329L131.667 21.5144L131.641 21.5514ZM71.5843 20.5531L71.6098 20.5716L71.6098 20.5531L71.5843 20.5531ZM104.479 19.6287C104.505 19.6287 104.505 19.6287 104.53 19.6102C104.53 19.5917 104.53 19.5732 104.505 19.5732C104.505 19.5732 104.479 19.5732 104.454 19.5917C104.454 19.6102 104.454 19.6102 104.479 19.6287ZM95.5103 19.148L95.4848 19.1295L95.4593 19.148L95.4848 19.1665C95.4848 19.1665 95.4848 19.148 95.5103 19.148ZM103.205 19.148L103.18 19.1295C103.18 19.1295 103.154 19.1295 103.129 19.148L103.154 19.1665C103.18 19.148 103.205 19.148 103.205 19.148ZM81.2923 19.5178L81.2923 19.4808L81.2413 19.4993L81.2923 19.5178ZM113.397 20.4791C113.448 20.4976 113.474 20.4791 113.448 20.4422C113.448 20.4422 113.423 20.4422 113.397 20.4422C113.397 20.4606 113.397 20.4791 113.397 20.4791ZM117.704 19.7766L117.755 19.7581L117.729 19.7396L117.704 19.7766ZM62.2076 19.0741C62.2331 19.0741 62.2331 19.0556 62.2586 19.0556L62.2331 19.0371C62.2331 19.0371 62.2076 19.0556 62.1821 19.0556C62.1821 19.0556 62.1821 19.0741 62.2076 19.0741ZM62.386 19.6842C62.386 19.6657 62.3605 19.6472 62.3605 19.6472C62.335 19.6472 62.3095 19.6657 62.2586 19.6657C62.2586 19.6842 62.284 19.7027 62.284 19.7027C62.3095 19.7027 62.335 19.6842 62.386 19.6842ZM138.241 22.3464L138.266 22.3649L138.292 22.3464L138.266 22.3279C138.266 22.3279 138.266 22.3279 138.241 22.3464ZM125.883 19.869C125.934 19.8875 125.959 19.869 125.934 19.8321C125.934 19.8321 125.908 19.8321 125.883 19.8321C125.857 19.8321 125.883 19.8506 125.883 19.869ZM64.0167 19.0741C64.0422 19.0741 64.0677 19.0741 64.0677 19.0556C64.0677 19.0186 64.0677 19.0186 64.0167 19.0186L63.9912 19.0371C63.9912 19.0556 64.0167 19.0741 64.0167 19.0741ZM85.3437 20.3867L85.3182 20.3682C85.3182 20.3682 85.2927 20.3867 85.2672 20.3867L85.2927 20.4052C85.3182 20.4052 85.3437 20.4052 85.3437 20.3867ZM59.099 19.111C59.099 19.1295 59.099 19.1295 59.099 19.148C59.1245 19.148 59.1245 19.148 59.15 19.148C59.15 19.1295 59.15 19.111 59.15 19.111C59.15 19.111 59.1245 19.111 59.099 19.111ZM94.0324 19.0926C94.0579 19.0926 94.0834 19.0926 94.0834 19.0741C94.0834 19.0741 94.0834 19.0556 94.0579 19.0371C94.0324 19.0371 94.007 19.0371 94.007 19.0556C94.0324 19.0741 94.0324 19.0926 94.0324 19.0926ZM90.032 18.7968L90.032 18.7598L89.9811 18.7783L90.032 18.7968ZM39.734 19.4253L39.734 19.3884L39.6831 19.4068L39.734 19.4253ZM50.4867 19.3329L50.4867 19.3144L50.4357 19.3144L50.4867 19.3329ZM123.36 19.7766C123.386 19.7766 123.386 19.7766 123.411 19.7581L123.386 19.7396C123.386 19.7396 123.36 19.7396 123.36 19.7581C123.335 19.7581 123.36 19.7766 123.36 19.7766ZM122.902 20.0169L122.902 20.0354L122.927 20.0169L122.902 20.0169Z" fill="black"/>
<path d="M60.8317 18.0757C61.1629 18.0388 61.4432 18.0388 61.7235 17.9833C61.7999 17.9648 61.8764 17.9648 61.9528 17.9648C62.3605 17.9833 62.7682 17.9463 63.1758 17.9094C63.2268 17.9094 63.2523 17.9094 63.3033 17.9094C63.3287 17.9094 63.3797 17.9278 63.4052 17.9463C63.4561 18.0018 63.4052 18.0203 63.3542 18.0388C63.3287 18.0573 63.2778 18.0757 63.2778 18.0942C63.2778 18.1497 63.3542 18.1497 63.4052 18.1682C63.5326 18.1867 63.6855 18.2052 63.8383 18.1867C64.1696 18.1497 64.4753 18.1682 64.8066 18.1682C64.8575 18.1682 64.883 18.1682 64.934 18.1867C64.9595 18.2052 64.9849 18.2236 65.0104 18.2606L64.9849 18.2976C64.7301 18.3715 64.4499 18.427 64.1696 18.3715C63.9403 18.3346 63.7364 18.3346 63.5071 18.3346C63.0739 18.3346 62.6153 18.3161 62.1821 18.3161C62.1821 18.3161 62.1566 18.2791 62.1821 18.2791C62.3095 18.2236 62.4624 18.2791 62.5898 18.2421C62.6408 18.2236 62.6662 18.2052 62.6408 18.1867C62.6408 18.1682 62.6153 18.1682 62.5898 18.1682C62.284 18.1497 61.9783 18.1497 61.6725 18.1497C61.3668 18.0942 61.112 18.0942 60.8317 18.0757Z" fill="black"/>
<path d="M54.8693 18.4825C54.3597 18.4825 53.8501 18.4825 53.3405 18.4825C53.1366 18.4825 52.9328 18.501 52.7544 18.5749C52.6525 18.6119 52.5506 18.6119 52.4487 18.5934C52.2958 18.5749 52.1939 18.5194 52.2193 18.4825C52.2703 18.427 52.3467 18.4085 52.4232 18.4085C52.6525 18.4085 52.8818 18.39 53.0857 18.4085C53.366 18.427 53.6462 18.427 53.952 18.4085C54.0794 18.4085 54.2068 18.39 54.3087 18.4085C54.64 18.427 54.9457 18.4085 55.277 18.3715C55.7101 18.3346 56.1178 18.3531 56.551 18.3531C56.6019 18.3531 56.6274 18.3715 56.6784 18.3715C56.7039 18.3715 56.7039 18.39 56.7293 18.4085C56.7548 18.4455 56.7293 18.4825 56.7039 18.4825C56.5765 18.501 56.4236 18.5194 56.2707 18.5194C55.914 18.4825 55.5318 18.501 55.175 18.5194C55.0731 18.4825 54.9712 18.4825 54.8693 18.4825Z" fill="black"/>
<path d="M56.2962 18.0942C56.2707 18.0942 56.2707 18.1127 56.2452 18.1127C56.0159 18.1312 55.7611 18.1497 55.5318 18.1867C55.4808 18.1867 55.4553 18.2052 55.4044 18.2052C54.8693 18.2052 54.3597 18.2421 53.8246 18.2421C53.7227 18.2421 53.6208 18.2236 53.5443 18.1682C53.5443 18.1682 53.5188 18.1497 53.5443 18.1312C53.5443 18.1127 53.5698 18.1127 53.5698 18.0942C53.5953 18.0757 53.5953 18.0757 53.6208 18.0757C54.4871 18.0388 55.3534 18.0018 56.2452 18.0388C56.2707 18.0388 56.2707 18.0573 56.2962 18.0573C56.2707 18.0757 56.2707 18.0757 56.2962 18.0942Z" fill="black"/>
<path d="M104.454 18.6304C104.403 18.6304 104.275 18.6304 104.174 18.6119C104.148 18.6119 104.123 18.5749 104.123 18.5379C104.123 18.5194 104.174 18.4825 104.199 18.4825C104.403 18.4825 104.607 18.4825 104.785 18.501C104.811 18.501 104.836 18.5379 104.836 18.5564C104.836 18.5749 104.785 18.6119 104.76 18.6119C104.658 18.6304 104.581 18.6304 104.454 18.6304Z" fill="black"/>
<path d="M59.4557 18.1127C59.3793 18.1127 59.3028 18.1127 59.2264 18.1127C59.2009 18.1127 59.1755 18.0942 59.15 18.0757C59.15 18.0573 59.1755 18.0573 59.1755 18.0388C59.4048 17.9648 59.6596 17.9463 59.9399 17.9648C59.9653 17.9648 59.9908 17.9833 59.9908 17.9833C59.9908 18.0018 59.9653 18.0388 59.9399 18.0388C59.787 18.0757 59.6341 18.0942 59.4557 18.1127Z" fill="black"/>
<path d="M15.8335 18.7043C15.6807 18.7598 15.5533 18.7413 15.4259 18.7413C15.1711 18.7228 14.8908 18.7413 14.636 18.6858C14.6105 18.6858 14.6105 18.6673 14.6105 18.6489C14.6105 18.6304 14.636 18.6119 14.636 18.6119C14.8908 18.6304 15.1456 18.6489 15.4259 18.6304C15.5788 18.6304 15.6807 18.6489 15.8335 18.7043Z" fill="black"/>
<path d="M57.7231 18.0388C57.6976 18.0573 57.6976 18.0757 57.6721 18.0942C57.5447 18.1867 57.3918 18.2052 57.2135 18.1682C57.1625 18.1497 57.0861 18.0942 57.1115 18.0757C57.137 18.0573 57.1625 18.0203 57.188 18.0203C57.3154 17.9833 57.4683 17.9463 57.5957 17.9648C57.6466 17.9648 57.6976 18.0203 57.7231 18.0388Z" fill="black"/>
<path d="M102.186 18.5564C101.906 18.5379 101.778 18.6119 101.626 18.5379C101.6 18.5379 101.6 18.5194 101.6 18.501C101.6 18.4825 101.6 18.4825 101.626 18.464C101.626 18.4455 101.651 18.4455 101.677 18.4455C101.957 18.4455 102.237 18.4455 102.517 18.464C102.543 18.464 102.568 18.501 102.594 18.5194C102.568 18.5194 102.568 18.5379 102.543 18.5379C102.364 18.5564 102.212 18.5564 102.186 18.5564Z" fill="black"/>
<path d="M121.551 19.0926C121.78 19.0926 121.984 19.0926 122.214 19.0926C122.341 19.0926 122.443 19.1295 122.519 19.2035C122.545 19.222 122.519 19.259 122.494 19.2774C122.468 19.2959 122.417 19.3144 122.392 19.3144C122.163 19.222 121.908 19.222 121.653 19.148C121.628 19.1295 121.602 19.111 121.551 19.0926Z" fill="black"/>
<path d="M69.444 17.9463C69.393 17.9278 69.2911 17.9094 69.1892 17.8909C69.1637 17.8909 69.1637 17.8724 69.1637 17.8539C69.1892 17.8354 69.1892 17.7984 69.2147 17.7799C69.3421 17.743 69.444 17.743 69.5459 17.7984C69.5714 17.8169 69.5969 17.8354 69.5969 17.8724C69.5969 17.8909 69.5459 17.9094 69.5204 17.9094C69.5459 17.9463 69.5204 17.9463 69.444 17.9463Z" fill="black"/>
<path d="M144.764 22.7901C145.018 22.7716 145.222 22.8086 145.426 22.864C145.171 22.901 145.171 22.901 144.764 22.7901Z" fill="black"/>
<path d="M74.2598 18.0573C74.4891 18.0573 74.6929 18.0388 74.8968 18.0388C74.9477 18.0388 74.9732 18.0573 74.9732 18.0942C74.9732 18.1127 74.9477 18.1127 74.9222 18.1127C74.6929 18.1312 74.4891 18.1127 74.2598 18.0573Z" fill="black"/>
<path d="M107.817 18.2606C108.123 18.2052 108.327 18.1867 108.531 18.2421C108.276 18.3161 108.276 18.3161 107.817 18.2606Z" fill="black"/>
<path d="M110.009 18.3346C109.703 18.39 109.703 18.39 109.448 18.3531C109.448 18.3531 109.423 18.3346 109.448 18.3161C109.448 18.2976 109.473 18.2976 109.499 18.2976C109.652 18.2606 109.83 18.2976 110.009 18.3346Z" fill="black"/>
<path d="M60.5259 18.3715C60.4749 18.3715 60.3985 18.3531 60.3475 18.3531C60.3221 18.3531 60.2966 18.3346 60.2966 18.3346C60.2966 18.3161 60.3221 18.2791 60.3475 18.2606C60.4495 18.2052 60.5769 18.2236 60.7043 18.2421C60.7298 18.2421 60.7807 18.2791 60.7807 18.2976C60.7807 18.3161 60.7552 18.3531 60.7043 18.3531C60.6278 18.3715 60.5769 18.3715 60.5259 18.3715Z" fill="black"/>
<path d="M74.1833 17.706C74.3872 17.7245 74.591 17.6875 74.7694 17.7799C74.4636 17.8539 74.4636 17.8539 74.1833 17.706Z" fill="black"/>
<path d="M72.629 18.0942C72.8074 18.0573 72.8329 18.0388 72.8838 18.0388C72.9348 18.0388 73.0112 18.0388 73.0622 18.0388C73.1641 18.0388 73.266 18.0573 73.3934 18.0942C73.1896 18.0942 72.9857 18.0942 72.629 18.0942Z" fill="black"/>
<path d="M58.8952 18.3715C59.1245 18.2606 59.2519 18.2421 59.4048 18.2976L59.4048 18.3346C59.2519 18.39 59.0735 18.3346 58.8952 18.3715Z" fill="black"/>
<path d="M121.22 19.222C120.94 19.259 120.71 19.1665 120.43 19.1665C120.404 19.1665 120.379 19.1665 120.379 19.1665L120.379 19.148C120.659 19.111 120.94 19.185 121.22 19.222Z" fill="black"/>
<path d="M95.9435 18.1312C95.867 18.1312 95.7906 18.0942 95.8161 18.0757C95.8415 18.0573 95.867 18.0203 95.8925 18.0203C95.9435 18.0018 96.0199 18.0018 96.0709 18.0018C96.0963 18.0018 96.1218 18.0018 96.1218 18.0203C96.1473 18.0203 96.1473 18.0388 96.1728 18.0573C96.1983 18.0942 96.1728 18.1127 96.1218 18.1312C96.0963 18.1312 96.0963 18.1497 96.0709 18.1497C96.0199 18.1312 95.9944 18.1312 95.9435 18.1312Z" fill="black"/>
<path d="M66.6921 18.1682C66.5647 18.2236 66.4373 18.2421 66.3099 18.2421C66.3099 18.2421 66.2844 18.2236 66.2844 18.2052C66.2844 18.1867 66.2844 18.1682 66.3099 18.1682C66.4373 18.1497 66.5647 18.1312 66.6921 18.1682Z" fill="black"/>
<path d="M93.4973 17.706C93.6757 17.6875 93.8286 17.669 93.9815 17.706C93.956 17.7245 93.905 17.743 93.8796 17.743C93.7521 17.743 93.6247 17.7615 93.4973 17.706Z" fill="black"/>
<path d="M119.258 19.148C119.232 19.1295 119.207 19.1295 119.181 19.111C119.207 19.0926 119.232 19.0741 119.258 19.0556C119.334 19.0371 119.411 19.0926 119.36 19.111C119.334 19.148 119.309 19.148 119.258 19.148Z" fill="black"/>
<path d="M113.346 18.7783C113.194 18.8152 113.066 18.8892 112.888 18.8522C112.862 18.8522 112.862 18.8337 112.862 18.8152C112.862 18.7968 112.862 18.7783 112.888 18.7783C113.041 18.7413 113.194 18.7968 113.346 18.7783Z" fill="black"/>
<path d="M106.492 18.2976C106.441 18.2976 106.416 18.2791 106.416 18.2421C106.416 18.2236 106.441 18.2236 106.467 18.2236C106.492 18.2052 106.543 18.2052 106.569 18.2052C106.594 18.2052 106.645 18.2236 106.671 18.2421C106.645 18.2606 106.62 18.2976 106.594 18.2976C106.569 18.2976 106.518 18.2976 106.492 18.2976Z" fill="black"/>
<path d="M76.4765 18.464C76.4511 18.4455 76.4256 18.4455 76.4001 18.427C76.4256 18.427 76.4256 18.4085 76.4511 18.4085C76.4765 18.4085 76.5275 18.4085 76.553 18.4085C76.6039 18.4085 76.6294 18.427 76.6039 18.4455C76.6039 18.4455 76.5785 18.464 76.553 18.464C76.553 18.464 76.5275 18.464 76.4765 18.464Z" fill="black"/>
<path d="M51.2511 18.5564C51.2256 18.5379 51.1747 18.5379 51.1492 18.5194C51.1237 18.501 51.1747 18.464 51.2511 18.464C51.2766 18.464 51.302 18.464 51.302 18.464C51.3275 18.4825 51.353 18.501 51.3785 18.5194C51.353 18.5379 51.3275 18.5379 51.2766 18.5564C51.2766 18.5564 51.2766 18.5564 51.2511 18.5564Z" fill="black"/>
<path d="M66.259 17.9833C66.1316 17.9833 66.0806 17.9648 66.1316 17.9463C66.157 17.9463 66.208 17.9463 66.2335 17.9463C66.259 17.9463 66.2844 17.9648 66.3099 17.9833C66.3099 17.9833 66.2844 17.9833 66.259 17.9833Z" fill="black"/>
<path d="M88.2484 18.427C88.2229 18.4455 88.172 18.4455 88.1465 18.4455C88.0955 18.4455 88.0701 18.4085 88.0955 18.39C88.121 18.3715 88.172 18.3531 88.1975 18.3715C88.2229 18.3715 88.2229 18.4085 88.2484 18.427Z" fill="black"/>
<path d="M95.4848 17.706C95.4084 17.706 95.3829 17.7245 95.3574 17.7245C95.3319 17.7245 95.3064 17.7245 95.281 17.706C95.3064 17.706 95.3064 17.706 95.3319 17.706C95.3829 17.706 95.4084 17.706 95.4848 17.706Z" fill="black"/>
<path d="M74.1833 17.706C74.1069 17.743 74.005 17.7799 73.9285 17.7984C73.903 17.7984 73.8775 17.7799 73.8521 17.7614L73.8776 17.7245C73.9795 17.7245 74.0814 17.7245 74.1833 17.706Z" fill="black"/>
<path d="M84.9869 18.4825C85.0379 18.4455 85.0634 18.4085 85.1143 18.39C85.1398 18.3715 85.1908 18.3715 85.2163 18.39C85.2417 18.4085 85.2672 18.4455 85.2672 18.464C85.2672 18.501 85.2417 18.5564 85.2417 18.5934L85.2672 18.5749C85.1653 18.5379 85.0889 18.501 84.9869 18.4825Z" fill="black"/>
<path d="M78.1837 17.6875C78.2092 17.706 78.2347 17.7245 78.2602 17.743C78.2347 17.7614 78.2092 17.7799 78.1837 17.7799C78.1073 17.7799 78.0563 17.7245 78.0818 17.706C78.1073 17.706 78.1328 17.706 78.1837 17.6875Z" fill="black"/>
<path d="M151.924 16.0606C151.873 16.0606 151.847 16.0421 151.847 16.0236C151.847 16.0051 151.924 16.0051 151.949 16.0051C151.975 16.0051 152 16.0236 152 16.0236C152 16.0421 151.975 16.0606 151.924 16.0606Z" fill="black"/>
<path d="M67.2782 17.8909C67.2782 17.8724 67.2782 17.8724 67.3036 17.8539C67.3291 17.8539 67.3291 17.8539 67.3546 17.8539C67.3546 17.8539 67.3801 17.8724 67.3801 17.8909C67.3546 17.8909 67.3546 17.9094 67.3291 17.9094C67.3291 17.9094 67.3036 17.9094 67.2782 17.8909Z" fill="black"/>
<path d="M134.113 20.3497C134.138 20.3497 134.164 20.3312 134.215 20.3312C134.215 20.3312 134.24 20.3497 134.24 20.3682C134.215 20.3682 134.189 20.3867 134.138 20.3867C134.113 20.3867 134.113 20.3682 134.113 20.3497Z" fill="black"/>
<path d="M108.403 18.0203C108.378 18.0203 108.352 18.0203 108.352 18.0018C108.352 17.9648 108.378 17.9648 108.429 17.9648L108.454 17.9833C108.454 18.0018 108.429 18.0018 108.403 18.0203Z" fill="black"/>
<path d="M78.2602 18.0942L78.2347 18.0757C78.2602 18.0573 78.2856 18.0573 78.3111 18.0942C78.3111 18.0757 78.2856 18.0942 78.2602 18.0942Z" fill="black"/>
<path d="M79.1775 17.8169C79.1775 17.7984 79.152 17.7984 79.152 17.7799C79.152 17.7614 79.1774 17.7614 79.2029 17.7614C79.2539 17.7614 79.2539 17.7984 79.2284 17.8169C79.2029 17.8169 79.1775 17.8169 79.1775 17.8169Z" fill="black"/>
<path d="M80.2986 17.8169C80.2731 17.8169 80.2731 17.8354 80.2476 17.8354C80.2221 17.8354 80.2221 17.8169 80.1967 17.8169C80.2221 17.8169 80.2221 17.7984 80.2476 17.7984C80.2731 17.7799 80.2731 17.7984 80.2986 17.8169Z" fill="black"/>
<path d="M146.369 22.975C146.343 22.975 146.343 22.9565 146.318 22.9565L146.343 22.938C146.394 22.938 146.42 22.938 146.394 22.975C146.42 22.975 146.394 22.975 146.369 22.975Z" fill="black"/>
<path d="M91.6883 18.4085C91.6883 18.39 91.6628 18.39 91.6628 18.3715L91.6883 18.3531C91.7392 18.3531 91.7392 18.3715 91.7137 18.4085C91.7392 18.4085 91.7137 18.4085 91.6883 18.4085Z" fill="black"/>
<path d="M63.9403 18.0203C63.9403 18.0018 63.9148 18.0018 63.9148 17.9833C63.9403 17.9833 63.9403 17.9648 63.9657 17.9648C64.0167 17.9648 64.0422 17.9833 64.0167 18.0018C63.9912 18.0203 63.9657 18.0203 63.9403 18.0203Z" fill="black"/>
<path d="M103.358 18.5564C103.333 18.5379 103.307 18.5194 103.282 18.5194C103.307 18.5194 103.307 18.501 103.333 18.501C103.358 18.501 103.409 18.501 103.409 18.5194C103.435 18.5379 103.384 18.5564 103.358 18.5564Z" fill="black"/>
<path d="M77.2155 17.7799C77.1645 17.7614 77.139 17.743 77.1645 17.7245C77.19 17.706 77.241 17.706 77.2664 17.706L77.2919 17.743C77.2664 17.7614 77.241 17.7614 77.2155 17.7799Z" fill="black"/>
<path d="M147.617 23.0304L147.643 23.0489L147.617 23.0489L147.617 23.0304Z" fill="black"/>
<path d="M133.043 20.7749C133.094 20.7564 133.145 20.7195 133.196 20.701C133.221 20.701 133.247 20.701 133.247 20.701C133.272 20.7195 133.272 20.7564 133.221 20.7564C133.145 20.7749 133.094 20.7749 133.043 20.7749Z" fill="black"/>
<path d="M13.6422 18.6119C13.6168 18.6119 13.6168 18.6304 13.5913 18.6304C13.5403 18.6119 13.5403 18.5934 13.5913 18.5934C13.5913 18.5934 13.6168 18.6119 13.6422 18.6119Z" fill="black"/>
<path d="M75.865 17.7245C75.8905 17.7245 75.8905 17.706 75.916 17.706C75.9415 17.706 75.9415 17.7245 75.9669 17.7245C75.9415 17.7245 75.9415 17.743 75.916 17.743C75.8905 17.743 75.865 17.7245 75.865 17.7245Z" fill="black"/>
<path d="M71.4569 18.5194L71.4824 18.501L71.5079 18.5194L71.4824 18.5379L71.4569 18.5194Z" fill="black"/>
<path d="M116.965 18.6119L116.99 18.5934L117.016 18.6119L116.965 18.6119Z" fill="black"/>
<path d="M121.22 19.222L121.22 19.185C121.22 19.2035 121.194 19.222 121.22 19.222Z" fill="black"/>
</svg>
